# This file uses centimeters as units for non-parametric coordinates.

mtllib robot_smooth.mtl
v 0.353164 -0.200000 0.293606
v 0.415017 -0.200000 0.110671
v 0.415017 -0.200000 -0.110671
v 0.353164 -0.200000 -0.293606
v 0.438147 -0.143472 0.353728
v 0.500000 -0.143472 0.133333
v 0.500000 -0.143472 -0.133333
v 0.438147 -0.143472 -0.353728
v 0.438147 0.094697 0.353728
v 0.469374 0.094697 0.133333
v 0.469374 0.094697 -0.133333
v 0.452219 0.094697 -0.353728
v 0.447885 0.136035 0.318862
v 0.461294 0.136035 0.120191
v 0.461294 0.136035 -0.120191
v 0.447885 0.136035 -0.318862
v 0.150239 0.200000 0.360573
v 0.150239 0.254015 0.120191
v 0.150239 0.254015 -0.120191
v 0.150239 0.200000 -0.360573
v -0.150239 0.200000 0.360573
v -0.150239 0.254015 0.120191
v -0.150239 0.254015 -0.120191
v -0.150239 0.200000 -0.360573
v -0.491610 0.200000 0.360573
v -0.491610 0.200000 0.120191
v -0.491610 0.200000 -0.120191
v -0.491610 0.200000 -0.360573
v -0.500000 0.044143 0.400000
v -0.500000 0.044143 0.133333
v -0.500000 0.044143 -0.133333
v -0.500000 0.044143 -0.400000
v -0.500000 -0.143472 0.400000
v -0.500000 -0.143472 0.133333
v -0.500000 -0.143472 -0.133333
v -0.500000 -0.143472 -0.400000
v -0.415017 -0.200000 0.332014
v -0.415017 -0.200000 0.110671
v -0.415017 -0.200000 -0.110671
v -0.415017 -0.200000 -0.332014
v -0.138339 -0.200000 0.332014
v -0.138339 -0.200000 0.110671
v -0.138339 -0.200000 -0.110671
v -0.138339 -0.200000 -0.332014
v 0.138339 -0.200000 0.332014
v 0.138339 -0.200000 0.110671
v 0.138339 -0.200000 -0.110671
v 0.138339 -0.200000 -0.332014
v -0.166667 -0.143472 -0.400000
v 0.166667 -0.143472 -0.400000
v -0.166667 0.158662 -0.400000
v 0.166667 0.158662 -0.400000
v -0.166667 -0.143472 0.400000
v 0.166667 -0.143472 0.400000
v -0.166667 0.158662 0.400000
v 0.166667 0.158662 0.400000
vt 0.252563 0.001370
vt 0.247879 0.669749
vt 0.247879 0.833762
vt 0.247879 0.997774
vt 0.252563 0.083954
vt 0.165962 0.669749
vt 0.165962 0.833762
vt 0.252563 0.083954
vt 0.252563 0.155793
vt 0.053509 0.669749
vt 0.053509 0.833762
vt 0.252563 0.155793
vt 0.254782 0.239522
vt 0.454812 0.239522
vt 0.654841 0.239522
vt 0.252563 0.233005
vt 0.254782 0.490539
vt 0.454812 0.490539
vt 0.654841 0.490539
vt 0.854871 0.490539
vt 0.254782 0.741556
vt 0.454812 0.741556
vt 0.654841 0.741556
vt 0.854871 0.741556
vt 0.001076 0.499338
vt 0.001076 0.333588
vt 0.001076 0.167838
vt 0.854871 0.992572
vt 0.083435 0.499338
vt 0.083435 0.333588
vt 0.083435 0.167838
vt 0.083435 0.002088
vt 0.227191 0.499338
vt 0.227191 0.333588
vt 0.227191 0.167838
vt 0.227191 0.002088
vt 0.997972 0.169383
vt 0.952449 0.169383
vt 0.906926 0.169383
vt 0.248152 0.002088
vt 0.997972 0.113753
vt 0.952449 0.113753
vt 0.906926 0.113753
vt 0.861403 0.113753
vt 0.997972 0.058122
vt 0.952449 0.058122
vt 0.906926 0.058122
vt 0.861403 0.002544
vt 0.997972 0.002492
vt 0.952449 0.002492
vt 0.906926 0.002492
vt 0.861403 0.002492
vt 0.856812 0.001370
vt 0.655396 0.001370
vt 0.453979 0.001370
vt 0.856812 0.023003
vt 0.655396 0.023003
vt 0.453979 0.023003
vt 0.856812 0.155793
vt 0.655396 0.155793
vt 0.453979 0.155793
vt 0.856812 0.233005
vt 0.655396 0.233005
vt 0.453979 0.233005
vt 0.856812 0.001370
vt 0.655396 0.001370
vt 0.453979 0.001370
vt 0.856812 0.023003
vt 0.655396 0.023003
vt 0.453979 0.023003
vt 0.856812 0.155793
vt 0.655396 0.155793
vt 0.453979 0.155793
vt 0.856812 0.233005
vt 0.655396 0.233005
vt 0.453979 0.233005
vt 0.001076 0.002088
vt 0.254782 0.992572
vt 0.854871 0.239522
vt 0.002126 0.505736
vt 0.654841 0.992572
vt 0.454812 0.992572
vt 0.002126 0.833761
vt 0.002126 0.669749
vt 0.861403 0.169383
vt 0.248152 0.499338
vt 0.248152 0.167838
vt 0.248152 0.333588
vt 0.053509 0.997774
vt 0.002126 0.997774
vt 0.053509 0.505736
vt 0.252563 0.233005
vt 0.165962 0.997774
vt 0.165962 0.505736
vt 0.252563 0.001370
vt 0.247879 0.505736
vt 0.655396 0.001370
vt 0.655396 0.023003
vt 0.856812 0.023003
vt 0.453979 0.001370
vt 0.453979 0.023003
vt 0.655396 0.023003
vt 0.252563 0.083954
vt 0.453979 0.023003
vt 0.655396 0.023003
vt 0.655396 0.155793
vt 0.856812 0.155793
vt 0.453979 0.023003
vt 0.453979 0.155793
vt 0.655396 0.155793
vt 0.252563 0.155793
vt 0.453979 0.155793
vt 0.655396 0.155793
vt 0.655396 0.233005
vt 0.453979 0.155793
vt 0.453979 0.233005
vn 0.537658 -0.839551 0.077969
vn 0.979209 -0.174507 0.103423
vn 0.487993 -0.860986 0.143410
vn 0.927242 -0.269266 0.260228
vn 0.539101 -0.839188 -0.071654
vn 0.978195 -0.165095 -0.126010
vn 0.487993 -0.860986 -0.143410
vn 0.950882 -0.244233 -0.190193
vn 0.978766 0.049449 0.198926
vn 0.989026 0.134779 0.060511
vn 0.992239 0.099680 -0.074338
vn 0.996242 -0.038578 -0.077544
vn 0.987375 -0.085422 0.133397
vn 0.979810 0.198664 0.022460
vn 0.979689 0.199094 -0.023887
vn 0.982271 0.171570 -0.075545
vn 0.354618 0.934952 0.010588
vn 0.163414 0.982300 0.091553
vn 0.304637 0.946583 0.105721
vn 0.115434 0.969150 0.217771
vn 0.354618 0.934952 -0.010588
vn 0.163414 0.982300 -0.091553
vn 0.304637 0.946583 -0.105721
vn 0.115434 0.969149 -0.217771
vn -0.051027 0.983193 0.175297
vn -0.082919 0.990397 0.110624
vn -0.082919 0.990397 -0.110624
vn -0.051027 0.983193 -0.175297
vn -0.109505 0.992987 0.044554
vn 0.000000 1.000000 0.000000
vn -0.109505 0.992987 -0.044554
vn 0.000000 1.000000 0.000000
vn -0.998554 0.053755 -0.000000
vn -0.999722 0.023565 -0.000000
vn -0.998554 0.053755 -0.000000
vn -0.999755 0.022159 -0.000000
vn -0.998554 0.053755 -0.000000
vn -0.999713 0.023973 -0.000000
vn -0.998554 0.053755 -0.000000
vn -0.999754 0.022159 -0.000000
vn -0.972710 -0.232024 -0.000000
vn -0.949984 -0.312299 -0.000000
vn -0.954001 -0.299805 -0.000000
vn -0.972710 -0.232024 -0.000000
vn -0.553841 -0.832623 -0.000000
vn -0.553841 -0.832623 -0.000000
vn -0.553841 -0.832623 -0.000000
vn -0.553841 -0.832623 -0.000000
vn 0.000000 -1.000000 0.000000
vn 0.000000 -1.000000 0.000000
vn 0.000000 -1.000000 0.000000
vn 0.000000 -1.000000 0.000000
vn 0.000000 -1.000000 0.000000
vn 0.000000 -1.000000 0.000000
vn 0.000000 -1.000000 0.000000
vn 0.000000 -1.000000 0.000000
vn 0.000000 -1.000000 0.000000
vn 0.000000 -1.000000 0.000000
vn 0.000000 -1.000000 0.000000
vn 0.000000 -1.000000 0.000000
vn 0.000000 -1.000000 0.000000
vn 0.000000 -1.000000 0.000000
vn 0.000000 -1.000000 0.000000
vn 0.000000 -1.000000 0.000000
vn 0.000000 -0.768925 -0.639339
vn 0.000000 -0.768926 -0.639338
vn 0.000000 -0.182768 -0.983156
vn 0.000000 -0.158860 -0.987301
vn 0.041134 -0.776633 -0.628609
vn 0.073001 -0.166906 -0.983267
vn 0.103381 -0.791831 -0.601927
vn 0.165923 -0.157553 -0.973471
vn -0.025416 0.073979 -0.996936
vn -0.006088 0.126589 -0.991937
vn 0.084742 0.125969 -0.988408
vn 0.183072 0.092483 -0.978740
vn -0.082288 0.268531 -0.959750
vn 0.000000 0.690176 -0.723642
vn 0.094301 0.706470 -0.701433
vn 0.258753 0.648362 -0.716012
vn -0.000000 -0.768925 0.639339
vn -0.000000 -0.174044 0.984738
vn -0.000000 -0.768925 0.639338
vn -0.000000 -0.158860 0.987301
vn 0.037111 -0.775943 0.629711
vn 0.072882 -0.177290 0.981456
vn 0.103381 -0.791831 0.601927
vn 0.166022 -0.153831 0.974050
vn -0.025416 0.073979 0.996936
vn -0.006059 0.130082 0.991485
vn 0.086540 0.124050 0.988495
vn 0.189340 0.096736 0.977135
vn -0.082288 0.268531 0.959750
vn -0.000000 0.690176 0.723641
vn 0.099877 0.707223 0.699900
vn 0.265406 0.604100 0.751414
s 1
usemtl initialShadingGroup
f 2/2/1 6/6/2 1/96/3
f 1/96/3 6/6/2 5/94/4
f 2/2/1 3/3/5 6/6/2
f 6/6/2 3/3/5 7/7/6
f 3/3/5 4/4/7 7/7/6
f 7/7/6 4/4/7 8/93/8
f 5/94/4 6/6/2 9/91/9
f 9/91/9 6/6/2 10/10/10
f 6/6/2 7/7/6 10/10/10
f 10/10/10 7/7/6 11/11/11
f 7/7/6 8/93/8 11/11/11
f 11/11/11 8/93/8 12/89/12
f 9/91/9 10/10/10 13/80/13
f 13/80/13 10/10/10 14/84/14
f 10/10/10 11/11/11 14/84/14
f 14/84/14 11/11/11 15/83/15
f 12/89/12 16/90/16 11/11/11
f 11/11/11 16/90/16 15/83/15
s 2
f 14/14/17 18/18/18 13/13/19
f 13/13/19 18/18/18 17/17/20
f 14/14/17 15/15/21 18/18/18
f 18/18/18 15/15/21 19/19/22
f 15/15/21 16/79/23 19/19/22
f 19/19/22 16/79/23 20/20/24
f 17/17/20 18/18/18 21/21/25
f 21/21/25 18/18/18 22/22/26
f 18/18/18 19/19/22 22/22/26
f 22/22/26 19/19/22 23/23/27
f 19/19/22 20/20/24 23/23/27
f 23/23/27 20/20/24 24/24/28
f 22/22/26 26/82/29 21/21/25
f 21/21/25 26/82/29 25/78/30
f 22/22/26 23/23/27 26/82/29
f 26/82/29 23/23/27 27/81/31
f 23/23/27 24/24/28 27/81/31
f 27/81/31 24/24/28 28/28/32
s 3
f 26/26/33 30/30/34 25/25/35
f 25/25/35 30/30/34 29/29/36
f 26/26/33 27/27/37 30/30/34
f 30/30/34 27/27/37 31/31/38
f 27/27/37 28/77/39 31/31/38
f 31/31/38 28/77/39 32/32/40
f 29/29/36 30/30/34 33/33/41
f 33/33/41 30/30/34 34/34/42
f 30/30/34 31/31/38 34/34/42
f 34/34/42 31/31/38 35/35/43
f 31/31/38 32/32/40 35/35/43
f 35/35/43 32/32/40 36/36/44
f 33/33/41 34/34/42 37/86/45
f 37/86/45 34/34/42 38/88/46
f 34/34/42 35/35/43 38/88/46
f 38/88/46 35/35/43 39/87/47
f 36/36/44 40/40/48 35/35/43
f 35/35/43 40/40/48 39/87/47
s 4
f 37/37/49 38/38/50 41/41/51
f 41/41/51 38/38/50 42/42/52
f 38/38/50 39/39/53 42/42/52
f 42/42/52 39/39/53 43/43/54
f 39/39/53 40/85/55 43/43/54
f 43/43/54 40/85/55 44/44/56
f 41/41/51 42/42/52 45/45/57
f 45/45/57 42/42/52 46/46/58
f 42/42/52 43/43/54 46/46/58
f 46/46/58 43/43/54 47/47/59
f 43/43/54 44/44/56 47/47/59
f 47/47/59 44/44/56 48/48/60
f 45/45/57 46/46/58 1/49/61
f 1/49/61 46/46/58 2/50/62
f 46/46/58 47/47/59 2/50/62
f 2/50/62 47/47/59 3/51/63
f 48/48/60 4/52/64 47/47/59
f 47/47/59 4/52/64 3/51/63
s 5
f 44/54/65 40/53/66 49/57/67
f 49/57/67 40/53/66 36/56/68
f 48/55/69 44/54/65 50/58/70
f 50/58/70 44/54/65 49/57/67
f 48/55/69 50/58/70 4/95/71
f 4/95/71 50/58/70 8/8/72
f 36/56/68 32/59/73 49/57/67
f 49/57/67 32/59/73 51/60/74
f 50/58/70 49/57/67 52/61/75
f 52/61/75 49/57/67 51/60/74
f 8/8/72 50/58/70 12/12/76
f 12/12/76 50/58/70 52/61/75
f 32/59/73 28/62/77 51/60/74
f 51/60/74 28/62/77 24/63/78
f 52/61/75 51/60/74 20/64/79
f 20/64/79 51/60/74 24/63/78
f 12/12/76 52/61/75 16/16/80
f 16/16/80 52/61/75 20/64/79
s 6
f 41/97/81 53/98/82 37/65/83
f 37/65/83 53/98/82 33/99/84
f 41/66/81 45/100/85 53/102/82
f 53/102/82 45/100/85 54/101/86
f 45/67/85 1/1/87 54/104/86
f 54/104/86 1/1/87 5/103/88
f 33/68/84 53/105/82 29/107/89
f 29/107/89 53/105/82 55/106/90
f 53/69/82 54/108/86 55/110/90
f 55/110/90 54/108/86 56/109/91
f 5/5/88 9/111/92 54/70/86
f 54/70/86 9/111/92 56/112/91
f 29/71/89 55/113/90 25/74/93
f 25/74/93 55/113/90 21/114/94
f 55/72/90 56/115/91 21/75/94
f 21/75/94 56/115/91 17/116/95
f 9/9/92 13/92/96 56/73/91
f 56/73/91 13/92/96 17/76/95
