# This file uses centimeters as units for non-parametric coordinates.

mtllib beacon.mtl
v 0.000000 0.299806 0.707107
v -0.707107 0.299806 0.000000
v -0.000000 0.299806 -0.707107
v 0.707107 0.299806 -0.000000
v 0.000000 -0.407301 0.000000
v 0.000000 0.488690 -0.707107
v -0.707107 0.488690 -0.000000
v -0.000000 0.488690 0.707107
v 0.707107 0.488690 0.000000
v 0.000000 1.195797 0.000000
vt 0.023006 0.697344
vt 0.023006 0.985484
vt 0.311146 0.985484
vt 0.311146 0.697344
vt 0.990538 0.048326
vt 0.025881 0.048326
vt 0.990539 0.048326
vt 0.025881 0.048326
vt 0.990539 0.048326
vt 0.507307 0.966946
vt 0.023006 0.697344
vt 0.311146 0.697344
vt 0.311146 0.985484
vt 0.023006 0.985484
vt 0.990539 0.048326
vt 0.025881 0.048326
vt 0.507307 0.966946
vt 0.990539 0.048326
vt 0.025881 0.048326
vt 0.990539 0.048326
vn 0.000000 1.000000 0.000000
vn 0.000000 1.000000 0.000000
vn 0.000000 1.000000 0.000000
vn 0.000000 1.000000 0.000000
vn -0.577350 -0.577350 0.577350
vn -0.577350 -0.577350 0.577350
vn -0.577350 -0.577350 0.577350
vn -0.577350 -0.577350 -0.577350
vn -0.577350 -0.577350 -0.577350
vn -0.577350 -0.577350 -0.577350
vn 0.577350 -0.577350 -0.577350
vn 0.577350 -0.577350 -0.577350
vn 0.577350 -0.577350 -0.577350
vn 0.577350 -0.577350 0.577350
vn 0.577350 -0.577350 0.577350
vn 0.577350 -0.577350 0.577350
vn 0.000000 -1.000000 0.000000
vn 0.000000 -1.000000 -0.000000
vn 0.000000 -1.000000 -0.000000
vn 0.000000 -1.000000 -0.000000
vn -0.577350 0.577350 -0.577350
vn -0.577350 0.577350 -0.577350
vn -0.577350 0.577350 -0.577350
vn -0.577350 0.577350 0.577350
vn -0.577350 0.577350 0.577350
vn -0.577350 0.577350 0.577350
vn 0.577350 0.577350 0.577350
vn 0.577350 0.577350 0.577350
vn 0.577350 0.577350 0.577350
vn 0.577350 0.577350 -0.577350
vn 0.577350 0.577350 -0.577350
vn 0.577350 0.577350 -0.577350
s 1
usemtl initialShadingGroup
f 1/1/1 4/4/2 2/2/3
f 2/2/3 4/4/2 3/3/4
s off
f 1/5/5 2/6/6 5/10/7
f 2/6/8 3/7/9 5/10/10
f 3/7/11 4/8/12 5/10/13
f 4/8/14 1/9/15 5/10/16
s 2
f 6/11/17 9/12/18 7/14/19
f 7/14/19 9/12/18 8/13/20
s off
f 6/15/21 7/16/22 10/17/23
f 7/16/24 8/18/25 10/17/26
f 8/18/27 9/19/28 10/17/29
f 9/19/30 6/20/31 10/17/32
v 0.000000 0.299806 0.707107
v -0.707107 0.299806 0.000000
v -0.000000 0.299806 -0.707107
v 0.707107 0.299806 -0.000000
v 0.000000 -0.407301 0.000000
v 0.000000 0.488690 -0.707107
v -0.707107 0.488690 -0.000000
v -0.000000 0.488690 0.707107
v 0.707107 0.488690 0.000000
v 0.000000 1.195797 0.000000
vt 0.023006 0.697344
vt 0.023006 0.985484
vt 0.311146 0.985484
vt 0.311146 0.697344
vt 0.990538 0.048326
vt 0.025881 0.048326
vt 0.990539 0.048326
vt 0.025881 0.048326
vt 0.990539 0.048326
vt 0.507307 0.966946
vt 0.023006 0.697344
vt 0.311146 0.697344
vt 0.311146 0.985484
vt 0.023006 0.985484
vt 0.990539 0.048326
vt 0.025881 0.048326
vt 0.507307 0.966946
vt 0.990539 0.048326
vt 0.025881 0.048326
vt 0.990539 0.048326
vn 0.000000 1.000000 0.000000
vn 0.000000 1.000000 0.000000
vn 0.000000 1.000000 0.000000
vn 0.000000 1.000000 0.000000
vn -0.577350 -0.577350 0.577350
vn -0.577350 -0.577350 0.577350
vn -0.577350 -0.577350 0.577350
vn -0.577350 -0.577350 -0.577350
vn -0.577350 -0.577350 -0.577350
vn -0.577350 -0.577350 -0.577350
vn 0.577350 -0.577350 -0.577350
vn 0.577350 -0.577350 -0.577350
vn 0.577350 -0.577350 -0.577350
vn 0.577350 -0.577350 0.577350
vn 0.577350 -0.577350 0.577350
vn 0.577350 -0.577350 0.577350
vn 0.000000 -1.000000 0.000000
vn 0.000000 -1.000000 -0.000000
vn 0.000000 -1.000000 -0.000000
vn 0.000000 -1.000000 -0.000000
vn -0.577350 0.577350 -0.577350
vn -0.577350 0.577350 -0.577350
vn -0.577350 0.577350 -0.577350
vn -0.577350 0.577350 0.577350
vn -0.577350 0.577350 0.577350
vn -0.577350 0.577350 0.577350
vn 0.577350 0.577350 0.577350
vn 0.577350 0.577350 0.577350
vn 0.577350 0.577350 0.577350
vn 0.577350 0.577350 -0.577350
vn 0.577350 0.577350 -0.577350
vn 0.577350 0.577350 -0.577350
s 1
f 11/21/33 14/24/34 12/22/35
f 12/22/35 14/24/34 13/23/36
s off
f 11/25/37 12/26/38 15/30/39
f 12/26/40 13/27/41 15/30/42
f 13/27/43 14/28/44 15/30/45
f 14/28/46 11/29/47 15/30/48
s 2
f 16/31/49 19/32/50 17/34/51
f 17/34/51 19/32/50 18/33/52
s off
f 16/35/53 17/36/54 20/37/55
f 17/36/56 18/38/57 20/37/58
f 18/38/59 19/39/60 20/37/61
f 19/39/62 16/40/63 20/37/64
