# Blender v2.74 (sub 0) OBJ File: ''
# www.blender.org
mtllib lamp.mtl
o lamp
v -0.131724 -0.000000 0.131724
v 0.131724 -0.000000 0.131724
v -0.100000 0.253183 0.100000
v 0.100000 0.253183 0.100000
v -0.100000 0.253183 -0.100000
v 0.100000 0.253183 -0.100000
v -0.131724 0.000000 -0.131724
v 0.131724 0.000000 -0.131724
v -0.080609 0.253183 0.080609
v 0.080609 0.253183 0.080609
v -0.070888 2.284763 0.070888
v 0.070888 2.284763 0.070888
v 0.614154 3.145844 0.029953
v 0.631353 3.121889 0.029953
v 0.614154 3.145844 -0.029961
v 0.631353 3.121889 -0.029961
v -0.070888 2.284763 -0.070888
v 0.070888 2.284763 -0.070888
v -0.080609 0.253183 -0.080609
v 0.080609 0.253183 -0.080609
v -0.075316 2.456988 -0.070521
v -0.075316 2.456988 0.070521
v 0.055714 2.489286 -0.070521
v 0.055714 2.489286 0.070521
v -0.126056 2.649382 -0.069513
v -0.126056 2.649382 0.069513
v 0.004344 2.686206 -0.069513
v 0.004344 2.686206 0.069513
v -0.182629 2.759625 -0.069267
v -0.182629 2.759625 0.069267
v -0.052212 2.801753 -0.069267
v -0.052212 2.801753 0.069267
v -0.251240 2.920969 -0.068517
v -0.251240 2.920969 0.068517
v -0.210746 3.047370 -0.068405
v -0.210746 3.047370 0.068406
v -0.113737 3.000158 -0.068405
v -0.128610 2.922379 -0.068517
v -0.128610 2.922379 0.068517
v -0.113737 3.000158 0.068405
v 0.207937 3.208275 -0.047357
v 0.207937 3.208275 0.047349
v 0.324491 3.155991 -0.039900
v 0.324491 3.155991 0.039892
v 0.310681 3.091476 -0.039900
v 0.208937 3.142083 -0.047357
v 0.208937 3.142083 0.047349
v 0.310681 3.091476 0.039892
v 0.050481 3.211827 -0.056418
v 0.050481 3.211827 0.056410
v 0.088353 3.141846 -0.056418
v 0.088353 3.141846 0.056410
v -0.120829 3.153951 -0.062271
v -0.120829 3.153951 0.062273
v -0.047092 3.090323 -0.056517
v -0.047092 3.090323 0.062273
v -0.218918 2.821713 -0.068979
v -0.218918 2.821713 0.068979
v -0.105417 2.857030 -0.068979
v -0.105417 2.857030 0.068979
v 0.431509 3.112892 -0.034566
v 0.431509 3.112892 0.034558
v 0.429852 3.059489 -0.034566
v 0.429852 3.059490 0.034557
v 0.560349 3.119132 -0.029980
v 0.560349 3.119132 0.029972
v 0.582768 3.073518 -0.029980
v 0.582768 3.073518 0.029972
v -0.251239 2.922001 0.055569
v -0.210746 3.017385 0.055569
v -0.324389 3.016691 0.055569
v -0.262096 3.084103 0.055570
v -0.460584 2.918283 0.008024
v -0.419145 2.887389 0.008024
v -0.460584 2.918283 -0.010224
v -0.419145 2.887389 -0.010224
v -0.262096 3.084103 -0.055568
v -0.210746 3.017385 -0.055569
v -0.324389 3.016691 -0.055569
v -0.251239 2.922001 -0.055569
v -0.370552 3.058686 0.050928
v -0.415784 3.071345 0.045950
v -0.370552 3.058686 -0.045960
v -0.415784 3.071345 -0.045949
v -0.415395 3.158031 -0.045948
v -0.331708 3.141849 -0.050927
v -0.331708 3.141849 0.050929
v -0.415395 3.158031 0.045950
v -0.464132 3.079111 0.036820
v -0.491291 3.149397 0.036820
v -0.464132 3.079111 -0.036818
v -0.491291 3.149397 -0.036818
v -0.606568 2.980089 0.020363
v -0.589650 2.929193 0.020363
v -0.549696 2.981430 0.020363
v -0.539119 2.946874 0.020363
v -0.549696 2.981430 -0.022563
v -0.539119 2.946874 -0.022563
v -0.589650 2.929193 -0.022563
v -0.606568 2.980089 -0.022563
v -0.491236 2.917509 0.008024
v -0.490247 2.880327 0.008024
v -0.491236 2.917509 -0.010224
v -0.490247 2.880327 -0.010224
v -0.495148 3.066744 0.031398
v -0.549289 3.108592 0.031399
v -0.495148 3.066744 -0.033597
v -0.549289 3.108592 -0.033597
v -0.533179 3.030019 0.031398
v -0.593890 3.049891 0.031398
v -0.533179 3.030019 -0.033598
v -0.593890 3.049891 -0.033598
v -0.537571 2.895155 0.012979
v -0.515084 2.923451 0.012979
v -0.515084 2.923451 -0.015180
v -0.537571 2.895155 -0.015180
v 0.446787 2.992195 0.016789
v 0.480365 2.992195 0.016789
v 0.446787 3.101174 0.016790
v 0.480365 3.101174 0.016790
v 0.446787 3.101174 -0.016788
v 0.480365 3.101174 -0.016788
v 0.446787 2.992195 -0.016789
v 0.480365 2.992195 -0.016789
v 0.463856 2.458621 -0.141139
v 0.322717 2.458621 0.000000
v 0.463856 2.541374 -0.252853
v 0.211003 2.541374 0.000000
v 0.463856 2.458621 0.141139
v 0.463856 2.541374 0.252853
v 0.604996 2.458621 0.000000
v 0.716710 2.541374 0.000000
v 0.463856 2.458621 0.000000
v 0.463856 2.992195 -0.135750
v 0.328106 2.992195 0.000000
v 0.463856 2.992195 0.000000
v 0.463856 2.992195 0.135750
v 0.599607 2.992195 0.000000
v 0.211003 2.893933 0.000000
v 0.463856 2.893933 0.252853
v 0.463856 2.893933 -0.252853
v 0.716710 2.893933 0.000000
vt 0.427219 0.986157
vt 0.307232 0.986157
vt 0.427219 0.866170
vt 0.307232 0.866170
vt 0.427219 0.746183
vt 0.307232 0.746183
vt 0.427219 0.626195
vt 0.307232 0.626196
vt 0.427219 0.506208
vt 0.307231 0.506209
vt 0.187245 0.986157
vt 0.187245 0.866170
vt 0.547206 0.986157
vt 0.547206 0.866170
vt 0.489101 0.033649
vt 0.573024 0.033649
vt 0.489101 0.172580
vt 0.573024 0.172580
vt 0.489101 0.218096
vt 0.573024 0.218096
vt 0.489101 0.402543
vt 0.573024 0.402543
vt 0.489101 0.448058
vt 0.573024 0.448058
vt 0.489101 0.586989
vt 0.573024 0.586989
vt 0.489101 0.771436
vt 0.573024 0.771436
vt 0.656946 0.033649
vt 0.656946 0.172580
vt 0.405180 0.033649
vt 0.405180 0.172580
vt 0.405180 0.177832
vt 0.489101 0.177832
vt 0.573024 0.442807
vt 0.489101 0.442807
vt 0.573024 0.177832
vt 0.656946 0.177832
vt 0.405180 0.192239
vt 0.489101 0.192239
vt 0.573024 0.428399
vt 0.489101 0.428399
vt 0.573024 0.192239
vt 0.656946 0.192239
vt 0.405180 0.195748
vt 0.489101 0.195748
vt 0.489101 0.424890
vt 0.573024 0.424890
vt 0.573024 0.195748
vt 0.656946 0.195748
vt 0.405180 0.206462
vt 0.489101 0.206462
vt 0.405180 0.208070
vt 0.489101 0.208070
vt 0.573024 0.412568
vt 0.573024 0.414177
vt 0.489101 0.412568
vt 0.489101 0.414177
vt 0.573024 0.206462
vt 0.656946 0.206462
vt 0.573024 0.208070
vt 0.656946 0.208070
vt 0.405180 0.212926
vt 0.489101 0.212926
vt 0.405180 0.214524
vt 0.489101 0.214524
vt 0.573024 0.406114
vt 0.573024 0.407712
vt 0.489101 0.406114
vt 0.489101 0.407712
vt 0.573024 0.212926
vt 0.656946 0.212926
vt 0.573024 0.214524
vt 0.656946 0.214524
vt 0.405180 0.210881
vt 0.489101 0.210881
vt 0.573024 0.409758
vt 0.489101 0.409758
vt 0.573024 0.210881
vt 0.656946 0.210881
vt 0.405180 0.209176
vt 0.489101 0.209176
vt 0.573024 0.411462
vt 0.489101 0.411462
vt 0.573024 0.209176
vt 0.656946 0.209176
vt 0.405180 0.199871
vt 0.489101 0.199871
vt 0.489101 0.420767
vt 0.573024 0.420767
vt 0.573024 0.199871
vt 0.656946 0.199871
vt 0.405180 0.216492
vt 0.489101 0.216492
vt 0.573024 0.404147
vt 0.489101 0.404147
vt 0.573024 0.216492
vt 0.656946 0.216492
vt 0.405180 0.217475
vt 0.489101 0.217475
vt 0.573024 0.403163
vt 0.489101 0.403163
vt 0.573024 0.217475
vt 0.656946 0.217475
vt 0.405180 0.218096
vt 0.656946 0.218096
vt 0.087398 0.020419
vt 0.145464 0.020419
vt 0.087398 0.094849
vt 0.145464 0.094849
vt 0.087398 0.260209
vt 0.145464 0.260209
vt 0.087398 0.500000
vt 0.145464 0.500000
vt 0.145464 0.665361
vt 0.145464 0.739791
vt 0.087398 0.665361
vt 0.087398 0.739791
vt 0.087398 0.979581
vt 0.145464 0.979581
vt 0.203529 0.020419
vt 0.203529 0.094849
vt 0.029333 0.020419
vt 0.029333 0.094849
vt 0.087398 0.179725
vt 0.087398 0.225906
vt 0.029333 0.179725
vt 0.029333 0.225906
vt 0.087398 0.534303
vt 0.145464 0.534303
vt 0.087398 0.580485
vt 0.145464 0.580485
vt 0.145464 0.179725
vt 0.203529 0.179725
vt 0.145464 0.225906
vt 0.203529 0.225906
vt 0.087398 0.228833
vt 0.145464 0.228833
vt 0.029333 0.228833
vt 0.145464 0.531377
vt 0.087398 0.531377
vt 0.203529 0.228833
vt 0.145464 0.235641
vt 0.145464 0.242195
vt 0.087398 0.235641
vt 0.087398 0.242195
vt 0.029333 0.235641
vt 0.029333 0.242195
vt 0.087398 0.518014
vt 0.145464 0.518014
vt 0.087398 0.524568
vt 0.145464 0.524568
vt 0.203529 0.235641
vt 0.203529 0.242195
vt 0.087398 0.250660
vt 0.145464 0.250660
vt 0.029333 0.250660
vt 0.029333 0.260209
vt 0.145464 0.509549
vt 0.087398 0.509549
vt 0.203529 0.250660
vt 0.203529 0.260209
vt 0.087398 0.231323
vt 0.145464 0.231323
vt 0.029333 0.231323
vt 0.145464 0.528886
vt 0.087398 0.528886
vt 0.203529 0.231323
vt 0.087398 0.233127
vt 0.145464 0.233127
vt 0.029333 0.233127
vt 0.145464 0.527082
vt 0.087398 0.527082
vt 0.203529 0.233127
vt 0.145464 0.246803
vt 0.087398 0.246803
vt 0.029333 0.246803
vt 0.087398 0.513407
vt 0.145464 0.513407
vt 0.203529 0.246803
vt 0.291954 0.270629
vt 0.324176 0.270629
vt 0.291954 0.302850
vt 0.324176 0.302850
vt 0.291954 0.335072
vt 0.324176 0.335072
vt 0.291954 0.367294
vt 0.324176 0.367294
vt 0.291954 0.399515
vt 0.324176 0.399515
vt 0.356397 0.270629
vt 0.356397 0.302850
vt 0.259732 0.270629
vt 0.259732 0.302850
vt 0.723325 0.314658
vt 0.783569 0.314658
vt 0.723325 0.445627
vt 0.783569 0.445627
vt 0.843812 0.314658
vt 0.843812 0.445627
vt 0.904056 0.314658
vt 0.904056 0.445627
vt 0.964300 0.314658
vt 0.964300 0.445627
vt 0.693203 0.164049
vt 0.843812 0.013440
vt 0.843812 0.158024
vt 0.994422 0.164049
vt 0.843812 0.977339
vt 0.693203 0.826729
vt 0.843812 0.820705
vt 0.843812 0.676120
vt 0.994422 0.826729
vt 0.783569 0.579752
vt 0.843812 0.579752
vt 0.783569 0.677026
vt 0.843812 0.677026
vt 0.723325 0.579752
vt 0.723325 0.677026
vt 0.904056 0.579752
vt 0.964300 0.579752
vt 0.904056 0.677026
vt 0.964300 0.677026
vn 0.000000 0.124300 0.992200
vn 0.000000 1.000000 0.000000
vn 0.000000 0.124300 -0.992200
vn 0.000000 -1.000000 -0.000000
vn 0.992200 0.124300 0.000000
vn -0.992200 0.124300 0.000000
vn 0.000000 0.004800 1.000000
vn 0.000000 0.004600 1.000000
vn -0.000000 0.004400 1.000000
vn 0.812300 0.583200 0.000000
vn 0.000000 0.004600 -1.000000
vn 0.000000 0.004800 -1.000000
vn 1.000000 0.004800 0.000000
vn 0.999900 0.011100 -0.000000
vn -1.000000 0.004800 0.000000
vn -1.000000 0.002400 -0.000000
vn -0.988800 -0.149200 0.000000
vn -0.988800 -0.149000 -0.000000
vn -0.000900 0.003400 -1.000000
vn -0.000700 0.003300 -1.000000
vn 0.986500 0.163700 0.000000
vn 0.986600 0.163200 0.000000
vn -0.000700 0.003300 1.000000
vn -0.000900 0.003400 1.000000
vn -0.942700 -0.333700 -0.000000
vn -0.942600 -0.333900 0.000000
vn -0.001000 0.003400 -1.000000
vn -0.001000 0.003700 -1.000000
vn 0.945400 0.326000 -0.000000
vn 0.945300 0.326200 0.000000
vn -0.001000 0.003700 1.000000
vn -0.001000 0.003400 1.000000
vn -0.880400 -0.474300 0.000000
vn -0.001000 0.003000 -1.000000
vn -0.000900 0.002700 -1.000000
vn 0.841500 0.540200 0.000000
vn -0.000900 0.002700 1.000000
vn -0.001000 0.003000 1.000000
vn -0.999400 0.035000 0.000000
vn -0.999400 0.035500 -0.000000
vn -0.874000 0.485800 -0.000000
vn -0.876100 0.482200 -0.000000
vn 0.031200 0.026000 -0.999200
vn -0.000300 0.003000 -1.000000
vn 0.010300 0.021400 -0.999700
vn -0.000000 0.002800 -1.000000
vn 0.998200 0.059400 0.000000
vn 0.998300 0.058900 -0.000000
vn 0.904800 -0.425800 -0.000000
vn 0.903000 -0.429600 0.000000
vn -0.000000 0.002800 1.000000
vn -0.000400 0.003100 1.000000
vn 0.010300 0.021400 0.999700
vn 0.015300 0.025300 0.999600
vn 0.185400 0.982700 0.000000
vn 0.186900 0.982400 -0.000000
vn 0.393500 0.919300 0.000000
vn 0.393400 0.919400 0.000000
vn 0.054700 -0.010500 -0.998400
vn 0.069200 -0.001400 -0.997600
vn 0.056900 -0.009700 -0.998300
vn 0.066700 0.008600 -0.997700
vn -0.200700 -0.979700 0.000000
vn -0.203400 -0.979100 0.000000
vn -0.357300 -0.934000 0.000000
vn -0.355600 -0.934600 0.000000
vn 0.066700 0.008600 0.997700
vn 0.069200 -0.001400 0.997600
vn 0.056900 -0.009700 0.998300
vn 0.054700 -0.010500 0.998400
vn -0.171300 0.985200 -0.000000
vn -0.172900 0.984900 0.000000
vn 0.034800 0.014500 -0.999300
vn 0.032100 0.001500 -0.999500
vn 0.206700 -0.978400 -0.000000
vn 0.208700 -0.978000 0.000000
vn 0.040600 0.025900 0.998800
vn 0.050200 0.022900 0.998500
vn -0.543900 0.839100 0.000000
vn -0.542400 0.840100 0.000000
vn 0.067100 -0.000900 -0.997700
vn 0.056000 0.007700 -0.998400
vn 0.581200 -0.813800 -0.000000
vn 0.594000 -0.804400 0.000000
vn 0.026000 0.035500 0.999000
vn 0.030300 0.032200 0.999000
vn -0.920100 -0.391700 0.000000
vn -0.920100 -0.391800 0.000000
vn -0.000900 0.004600 -1.000000
vn -0.001600 0.005000 -1.000000
vn 0.844300 0.535900 0.000000
vn 0.844100 0.536100 0.000000
vn -0.001600 0.005000 1.000000
vn -0.000900 0.004600 1.000000
vn 0.166200 0.986100 0.000000
vn 0.164100 0.986500 -0.000000
vn 0.039000 0.000600 -0.999200
vn 0.040600 -0.002600 -0.999200
vn -0.074800 -0.997200 0.000000
vn -0.072800 -0.997300 0.000000
vn 0.040600 -0.002600 0.999200
vn 0.039000 0.000600 0.999200
vn -0.171500 0.985200 0.000000
vn -0.175500 0.984500 -0.000000
vn 0.019600 0.009600 -0.999800
vn 0.022800 0.008600 -0.999700
vn 0.287400 -0.957800 0.000000
vn 0.293000 -0.956100 0.000000
vn 0.022800 0.008600 0.999700
vn 0.019600 0.009600 0.999800
vn -0.444700 0.895700 0.000000
vn 0.000300 0.000200 -1.000000
vn 0.705500 -0.708700 0.000000
vn 0.000300 0.000200 1.000000
vn 0.000000 -0.000000 1.000000
vn -0.019600 0.018100 0.999600
vn -0.025300 0.015800 0.999600
vn 0.597700 0.801700 0.000000
vn -0.046800 0.009600 -0.998900
vn -0.000000 0.000000 -1.000000
vn -0.040500 0.037400 -0.998500
vn 0.920500 -0.390800 0.000000
vn 0.792500 0.609900 0.000000
vn 0.718400 0.695600 -0.000000
vn 0.720200 0.693700 0.000000
vn -0.791400 -0.611300 0.000000
vn -0.756000 -0.654600 -0.000000
vn -0.756700 -0.653700 -0.000000
vn -0.524600 -0.851300 0.000000
vn -0.223100 -0.974800 -0.000000
vn -0.535000 -0.844900 -0.000000
vn -0.216700 -0.976200 -0.000000
vn -0.085100 0.000400 -0.996400
vn -0.091200 -0.026500 -0.995500
vn -0.072700 0.010300 -0.997300
vn -0.074200 -0.024900 -0.996900
vn 0.448100 0.894000 0.000000
vn 0.448400 0.893800 0.000000
vn 0.060400 0.998200 0.000000
vn 0.063600 0.998000 -0.000000
vn -0.051200 0.023900 0.998400
vn -0.097700 -0.002200 0.995200
vn -0.060700 0.026800 0.997800
vn -0.144000 0.000600 0.989600
vn -0.149400 -0.032300 0.988300
vn -0.095600 -0.051700 0.994100
vn 0.005500 -1.000000 0.000000
vn 0.029600 -0.999600 -0.000000
vn -0.083900 -0.041200 -0.995600
vn -0.132500 -0.025700 -0.990900
vn -0.316300 0.948600 -0.000000
vn -0.327400 0.944900 -0.000000
vn 0.002200 -0.093800 0.995600
vn 0.018800 -0.053600 0.998400
vn -0.015700 -0.107900 0.994000
vn 0.043700 -0.080900 0.995800
vn 0.991700 -0.128200 -0.000000
vn 0.995900 -0.090700 -0.000000
vn 0.868200 0.496300 0.000000
vn 0.878200 0.478400 0.000000
vn 0.043700 -0.080900 -0.995800
vn 0.018800 -0.053700 -0.998400
vn -0.015700 -0.107900 -0.994000
vn 0.002200 -0.093800 -0.995600
vn -1.000000 0.002300 -0.000000
vn -0.999700 -0.023500 0.000000
vn -0.784600 -0.619900 -0.000000
vn -0.795300 -0.606200 -0.000000
vn 0.098800 0.002600 0.995100
vn 0.043900 -0.017800 0.998900
vn 0.119700 0.992800 0.000000
vn 0.102400 0.994700 -0.000000
vn -0.025200 0.999700 0.000000
vn 0.043900 -0.017800 -0.998900
vn 0.098800 0.002600 -0.995100
vn -0.087700 -0.996100 0.000000
vn -0.071500 -0.997400 0.000000
vn 0.098800 -0.995100 0.000000
vn -0.052400 -0.036100 0.998000
vn -0.023500 -0.030500 0.999300
vn 0.564600 -0.825400 -0.000000
vn 0.574900 -0.818200 -0.000000
vn -0.014000 -0.018100 -0.999700
vn -0.031200 -0.021500 -0.999300
vn -0.689900 0.723900 -0.000000
vn -0.694500 0.719400 -0.000000
vn -0.025500 -0.077800 0.996600
vn -0.013100 -0.086600 0.996200
vn 0.833000 -0.553300 0.000000
vn 0.822100 -0.569300 -0.000000
vn -0.013100 -0.086600 -0.996200
vn -0.025500 -0.077800 -0.996600
vn -0.908300 0.418400 0.000000
vn -0.901900 0.431900 0.000000
vn 0.081300 -0.111700 0.990400
vn 0.138800 -0.085000 0.986700
vn 0.577200 0.816600 0.000000
vn 0.566900 0.823800 0.000000
vn 0.138800 -0.085000 -0.986700
vn 0.081300 -0.111700 -0.990400
vn -0.460100 -0.887900 -0.000000
vn -0.454500 -0.890700 0.000000
vn 1.000000 0.000000 0.000000
vn -1.000000 0.000000 0.000000
vn -0.511500 -0.690500 -0.511500
vn -0.704100 -0.091400 -0.704100
vn -0.702000 -0.119600 -0.702000
vn -0.511500 -0.690500 0.511500
vn -0.704100 -0.091400 0.704100
vn -0.702000 -0.119600 0.702000
vn 0.511500 -0.690500 0.511500
vn 0.704100 -0.091400 0.704200
vn 0.702000 -0.119600 0.702000
vn 0.511500 -0.690500 -0.511500
vn 0.704100 -0.091400 -0.704200
vn 0.702000 -0.119600 -0.702000
vn -0.701500 0.125800 0.701500
vn -0.703800 0.097200 0.703800
vn -0.540700 0.644400 0.540700
vn -0.701500 0.125800 -0.701500
vn -0.703800 0.097200 -0.703800
vn -0.540700 0.644400 -0.540700
vn 0.701500 0.125800 -0.701500
vn 0.703800 0.097200 -0.703800
vn 0.540700 0.644400 -0.540700
vn 0.701500 0.125800 0.701500
vn 0.703800 0.097200 0.703800
vn 0.540700 0.644400 0.540700
usemtl lambert2SG
s 1
f 1/1/1 2/2/1 3/3/1
f 3/3/1 2/2/1 4/4/1
f 3/3/2 4/4/2 5/5/2
f 5/5/2 4/4/2 6/6/2
f 5/5/3 6/6/3 7/7/3
f 7/7/3 6/6/3 8/8/3
f 7/7/4 8/8/4 1/9/4
f 1/9/4 8/8/4 2/10/4
f 2/2/5 8/11/5 4/4/5
f 4/4/5 8/11/5 6/12/5
f 7/13/6 1/1/6 5/14/6
f 5/14/6 1/1/6 3/3/6
f 9/15/7 10/16/7 11/17/8
f 11/17/8 10/16/7 12/18/9
f 13/19/10 14/20/10 15/21/10
f 15/21/10 14/20/10 16/22/10
f 17/23/11 18/24/11 19/25/12
f 19/25/12 18/24/11 20/26/12
f 19/25/4 20/26/4 9/27/4
f 9/27/4 20/26/4 10/28/4
f 10/16/13 20/29/13 12/18/14
f 12/18/14 20/29/13 18/30/14
f 19/31/15 9/15/15 17/32/16
f 17/32/16 9/15/15 11/17/16
f 17/32/16 11/17/16 21/33/17
f 21/33/17 11/17/16 22/34/18
f 23/35/19 18/24/11 21/36/20
f 21/36/20 18/24/11 17/23/11
f 12/18/14 18/30/14 24/37/21
f 24/37/21 18/30/14 23/38/22
f 11/17/8 12/18/9 22/34/23
f 22/34/23 12/18/9 24/37/24
f 21/33/17 22/34/18 25/39/25
f 25/39/25 22/34/18 26/40/26
f 27/41/27 23/35/19 25/42/28
f 25/42/28 23/35/19 21/36/20
f 24/37/21 23/38/22 28/43/29
f 28/43/29 23/38/22 27/44/30
f 22/34/23 24/37/24 26/40/31
f 26/40/31 24/37/24 28/43/32
f 25/39/25 26/40/26 29/45/33
f 29/45/33 26/40/26 30/46/33
f 29/47/34 31/48/35 25/42/28
f 25/42/28 31/48/35 27/41/27
f 28/43/29 27/44/30 32/49/36
f 32/49/36 27/44/30 31/50/36
f 28/43/32 32/49/37 26/40/31
f 26/40/31 32/49/37 30/46/38
f 33/51/39 34/52/40 35/53/41
f 35/53/41 34/52/40 36/54/42
f 37/55/43 38/56/44 35/57/45
f 35/57/45 38/56/44 33/58/46
f 39/59/47 38/60/48 40/61/49
f 40/61/49 38/60/48 37/62/50
f 34/52/51 39/59/52 36/54/53
f 36/54/53 39/59/52 40/61/54
f 41/63/55 42/64/56 43/65/57
f 43/65/57 42/64/56 44/66/58
f 45/67/59 46/68/60 43/69/61
f 43/69/61 46/68/60 41/70/62
f 47/71/63 46/72/64 48/73/65
f 48/73/65 46/72/64 45/74/66
f 42/64/67 47/71/68 44/66/69
f 44/66/69 47/71/68 48/73/70
f 49/75/71 50/76/72 41/63/55
f 41/63/55 50/76/72 42/64/56
f 46/68/60 51/77/73 41/70/62
f 41/70/62 51/77/73 49/78/74
f 52/79/75 51/80/76 47/71/63
f 47/71/63 51/80/76 46/72/64
f 50/76/77 52/79/78 42/64/67
f 42/64/67 52/79/78 47/71/68
f 53/81/79 54/82/80 49/75/71
f 49/75/71 54/82/80 50/76/72
f 51/77/73 55/83/81 49/78/74
f 49/78/74 55/83/81 53/84/82
f 56/85/83 55/86/84 52/79/75
f 52/79/75 55/86/84 51/80/76
f 54/82/85 56/85/86 50/76/77
f 50/76/77 56/85/86 52/79/78
f 57/87/87 58/88/88 33/51/39
f 33/51/39 58/88/88 34/52/40
f 33/58/46 38/56/44 57/89/89
f 57/89/89 38/56/44 59/90/90
f 60/91/91 59/92/92 39/59/47
f 39/59/47 59/92/92 38/60/48
f 60/91/93 39/59/52 58/88/94
f 58/88/94 39/59/52 34/52/51
f 29/45/33 30/46/33 57/87/87
f 57/87/87 30/46/33 58/88/88
f 57/89/89 59/90/90 29/47/34
f 29/47/34 59/90/90 31/48/35
f 32/49/36 31/50/36 60/91/91
f 60/91/91 31/50/36 59/92/92
f 32/49/37 60/91/93 30/46/38
f 30/46/38 60/91/93 58/88/94
f 35/53/41 36/54/42 53/81/79
f 53/81/79 36/54/42 54/82/80
f 55/83/81 37/55/43 53/84/82
f 53/84/82 37/55/43 35/57/45
f 37/62/50 55/86/84 40/61/49
f 40/61/49 55/86/84 56/85/83
f 36/54/53 40/61/54 54/82/85
f 54/82/85 40/61/54 56/85/86
f 43/65/57 44/66/58 61/93/95
f 61/93/95 44/66/58 62/94/96
f 63/95/97 45/67/59 61/96/98
f 61/96/98 45/67/59 43/69/61
f 48/73/65 45/74/66 64/97/99
f 64/97/99 45/74/66 63/98/100
f 44/66/69 48/73/70 62/94/101
f 62/94/101 48/73/70 64/97/102
f 61/93/95 62/94/96 65/99/103
f 65/99/103 62/94/96 66/100/104
f 67/101/105 63/95/97 65/102/106
f 65/102/106 63/95/97 61/96/98
f 64/97/99 63/98/100 68/103/107
f 68/103/107 63/98/100 67/104/108
f 62/94/101 64/97/102 66/100/109
f 66/100/109 64/97/102 68/103/110
f 65/99/103 66/100/104 15/105/111
f 15/105/111 66/100/104 13/19/111
f 15/21/112 16/22/112 65/102/106
f 65/102/106 16/22/112 67/101/105
f 68/103/107 67/104/108 14/20/113
f 14/20/113 67/104/108 16/106/113
f 68/103/110 14/20/114 66/100/109
f 66/100/109 14/20/114 13/19/114
f 69/107/115 70/108/115 71/109/116
f 71/109/116 70/108/115 72/110/117
f 73/111/118 74/112/118 75/113/118
f 75/113/118 74/112/118 76/114/118
f 77/115/119 78/116/120 79/117/121
f 79/117/121 78/116/120 80/118/120
f 80/118/122 78/116/122 69/119/122
f 69/119/122 78/116/122 70/120/122
f 70/108/123 78/121/123 72/110/124
f 72/110/124 78/121/123 77/122/125
f 80/123/126 69/107/126 79/124/127
f 79/124/127 69/107/126 71/109/128
f 81/125/129 82/126/130 83/127/131
f 83/127/131 82/126/130 84/128/132
f 84/129/133 85/130/134 83/131/135
f 83/131/135 85/130/134 86/132/136
f 87/133/137 86/134/138 88/135/139
f 88/135/139 86/134/138 85/136/140
f 87/133/141 88/135/142 81/125/143
f 81/125/143 88/135/142 82/126/144
f 79/124/127 71/109/128 83/127/131
f 83/127/131 71/109/128 81/125/129
f 86/132/136 77/115/119 83/131/135
f 83/131/135 77/115/119 79/117/121
f 72/110/124 77/122/125 87/133/137
f 87/133/137 77/122/125 86/134/138
f 71/109/116 72/110/117 81/125/143
f 81/125/143 72/110/117 87/133/141
f 82/126/144 88/135/142 89/137/145
f 89/137/145 88/135/142 90/138/146
f 84/128/132 82/126/130 91/139/147
f 91/139/147 82/126/130 89/137/148
f 92/140/149 85/130/134 91/141/150
f 91/141/150 85/130/134 84/129/133
f 88/135/139 85/136/140 90/138/151
f 90/138/151 85/136/140 92/142/152
f 93/143/153 94/144/154 95/145/155
f 95/145/155 94/144/154 96/146/156
f 97/147/157 95/145/158 98/148/159
f 98/148/159 95/145/158 96/146/160
f 98/149/161 99/150/162 97/151/163
f 97/151/163 99/150/162 100/152/164
f 93/143/165 100/153/166 94/144/167
f 94/144/167 100/153/166 99/154/168
f 101/155/169 102/156/170 73/111/115
f 73/111/115 102/156/170 74/112/115
f 103/157/171 101/155/172 75/158/173
f 75/158/173 101/155/172 73/111/173
f 76/114/120 104/159/174 75/113/120
f 75/113/120 104/159/174 103/160/175
f 102/156/176 104/161/177 74/112/178
f 74/112/178 104/161/177 76/162/178
f 89/137/145 90/138/146 105/163/179
f 105/163/179 90/138/146 106/164/180
f 89/137/148 105/163/181 91/139/147
f 91/139/147 105/163/181 107/165/182
f 108/166/183 92/140/149 107/167/184
f 107/167/184 92/140/149 91/141/150
f 90/138/151 92/142/152 106/164/185
f 106/164/185 92/142/152 108/168/186
f 105/163/179 106/164/180 109/169/187
f 109/169/187 106/164/180 110/170/188
f 107/165/182 105/163/181 111/171/189
f 111/171/189 105/163/181 109/169/190
f 112/172/191 108/166/183 111/173/192
f 111/173/192 108/166/183 107/167/184
f 106/164/185 108/168/186 110/170/193
f 110/170/193 108/168/186 112/174/194
f 94/144/154 113/175/195 96/146/156
f 96/146/156 113/175/195 114/176/196
f 98/148/159 96/146/160 115/177/197
f 115/177/197 96/146/160 114/176/198
f 115/178/199 116/179/200 98/149/161
f 98/149/161 116/179/200 99/150/162
f 94/144/167 99/154/168 113/175/201
f 113/175/201 99/154/168 116/180/202
f 113/175/195 102/156/170 114/176/196
f 114/176/196 102/156/170 101/155/169
f 115/177/197 114/176/198 103/157/171
f 103/157/171 114/176/198 101/155/172
f 103/160/175 104/159/174 115/178/199
f 115/178/199 104/159/174 116/179/200
f 113/175/201 116/180/202 102/156/176
f 102/156/176 116/180/202 104/161/177
f 109/169/187 110/170/188 95/145/155
f 95/145/155 110/170/188 93/143/153
f 111/171/189 109/169/190 97/147/157
f 97/147/157 109/169/190 95/145/158
f 100/152/164 112/172/191 97/151/163
f 97/151/163 112/172/191 111/173/192
f 110/170/193 112/174/194 93/143/165
f 93/143/165 112/174/194 100/153/166
f 117/181/115 118/182/115 119/183/115
f 119/183/115 118/182/115 120/184/115
f 119/183/2 120/184/2 121/185/2
f 121/185/2 120/184/2 122/186/2
f 121/185/120 122/186/120 123/187/120
f 123/187/120 122/186/120 124/188/120
f 123/187/4 124/188/4 117/189/4
f 117/189/4 124/188/4 118/190/4
f 118/182/203 124/191/203 120/184/203
f 120/184/203 124/191/203 122/192/203
f 123/193/204 117/181/204 121/194/204
f 121/194/204 117/181/204 119/183/204
f 125/195/205 126/196/205 127/197/206
f 127/197/206 126/196/205 128/198/207
f 126/196/208 129/199/208 128/198/209
f 128/198/209 129/199/208 130/200/210
f 129/199/211 131/201/211 130/200/212
f 130/200/212 131/201/211 132/202/213
f 131/201/214 125/203/214 132/202/215
f 132/202/215 125/203/214 127/204/216
f 126/205/4 125/206/4 133/207/4
f 129/199/4 126/205/4 133/207/4
f 131/208/4 129/199/4 133/207/4
f 125/206/4 131/208/4 133/207/4
f 134/209/2 135/210/2 136/211/2
f 135/210/2 137/212/2 136/211/2
f 137/212/2 138/213/2 136/211/2
f 138/213/2 134/209/2 136/211/2
f 139/214/217 140/215/218 135/216/219
f 135/216/219 140/215/218 137/217/219
f 141/218/220 139/214/221 134/219/222
f 134/219/222 139/214/221 135/216/222
f 142/220/223 141/221/224 138/222/225
f 138/222/225 141/221/224 134/223/225
f 140/215/226 142/220/227 137/217/228
f 137/217/228 142/220/227 138/222/228
f 128/198/209 130/200/210 139/214/217
f 139/214/217 130/200/210 140/215/218
f 127/197/206 128/198/207 141/218/220
f 141/218/220 128/198/207 139/214/221
f 132/202/215 127/204/216 142/220/223
f 142/220/223 127/204/216 141/221/224
f 130/200/212 132/202/213 140/215/226
f 140/215/226 132/202/213 142/220/227
