# This file uses centimeters as units for non-parametric coordinates.

mtllib rock.mtl
v 0.674380 -0.073564 -0.444444
v 0.246567 -0.073564 -0.844206
v -0.401935 -0.073564 -0.965461
v -0.954607 -0.073564 -0.292928
v -0.775412 -0.073564 0.477340
v -0.118201 -0.073564 0.726958
v 0.474039 -0.073564 0.457123
v 0.732909 -0.073564 0.057659
v 1.016413 0.161095 -0.774440
v 0.006814 0.161095 -1.411159
v -0.802445 0.161095 -1.087749
v -1.452651 0.161095 0.026556
v -1.117445 0.161095 0.807336
v -0.308187 0.161095 1.130746
v 0.816072 0.161095 0.787120
v 1.151278 0.161095 0.006340
v 1.085698 0.494084 -0.862563
v 0.222372 0.569604 -1.589635
v -0.894025 0.434945 -1.162318
v -1.565715 0.494084 -0.280413
v -1.195398 0.494084 0.881905
v 0.000000 0.445438 1.346624
v 0.894025 0.494084 0.862563
v 1.264343 0.652990 0.000000
v 0.965922 0.994084 -0.747002
v 0.000000 0.994084 -1.356175
v -0.774248 0.885934 -1.046757
v -1.396325 0.994084 0.019342
v -1.075621 1.106409 0.766343
v 0.000000 0.921052 1.183196
v 0.774248 0.994084 0.747002
v 1.094953 0.994084 0.000000
v 0.447013 1.360109 -0.747863
v -0.134160 1.360109 -0.954227
v -0.625239 1.400304 -0.613308
v -0.933544 1.400304 0.019342
v -0.748385 1.360109 0.450623
v 0.000000 1.360109 0.736700
v 0.447013 1.360109 0.431282
v 0.750375 1.360109 0.000000
v 0.006814 -0.213597 0.006340
v -0.130311 1.534279 0.000000
vt 0.708912 0.582918
vt 0.585682 0.687535
vt 0.807432 0.669277
vt 0.516623 0.835904
vt 0.398884 0.719267
vt 0.283520 0.751269
vt 0.239690 0.543267
vt 0.096231 0.459659
vt 0.291306 0.341690
vt 0.192785 0.255331
vt 0.480613 0.276366
vt 0.425888 0.170696
vt 0.651205 0.346981
vt 0.749726 0.260622
vt 0.725771 0.451519
vt 0.846280 0.464949
vt 0.933247 0.749983
vt 0.749304 1.000000
vt 0.193497 0.851745
vt 0.000000 0.549165
vt 0.080885 0.157765
vt 0.527561 0.000000
vt 0.861626 0.164331
vt 1.000000 0.457157
vt 0.518042 0.789639
vt 0.792889 0.662097
vt 0.291642 0.740542
vt 0.112455 0.461547
vt 0.204833 0.266059
vt 0.514660 0.156970
vt 0.761350 0.258370
vt 0.830056 0.466609
vt 0.643420 0.662322
vt 0.476016 0.716327
vt 0.334563 0.627109
vt 0.245757 0.461547
vt 0.299091 0.348682
vt 0.514660 0.273816
vt 0.643420 0.353743
vt 0.730802 0.466609
vt 0.516623 0.464949
vt 0.477125 0.466609
vn 0.302587 -0.896427 -0.323820
vn 0.297894 -0.845615 -0.442938
vn 0.300128 -0.865222 -0.401639
vn 0.296092 -0.831809 -0.469492
vn 0.076424 -0.909448 -0.408733
vn -0.112840 -0.832800 -0.541952
vn -0.024004 -0.875355 -0.482885
vn -0.247490 -0.745140 -0.619286
vn -0.400523 -0.855130 -0.329140
vn -0.537910 -0.774969 -0.331776
vn -0.448327 -0.830338 -0.330972
vn -0.567594 -0.753755 -0.331195
vn -0.377867 -0.921677 0.087907
vn -0.408463 -0.901265 0.144499
vn -0.395947 -0.910265 0.121009
vn -0.429007 -0.884324 0.184182
vn -0.165637 -0.884523 0.436100
vn -0.170453 -0.882298 0.438745
vn -0.173528 -0.880859 0.440427
vn -0.176703 -0.879359 0.442158
vn 0.194380 -0.883290 0.426632
vn 0.182799 -0.853091 0.488693
vn 0.173819 -0.828519 0.532299
vn 0.169178 -0.815479 0.553509
vn 0.377112 -0.893344 0.244384
vn 0.467152 -0.855840 0.222054
vn 0.447421 -0.864972 0.227241
vn 0.497701 -0.840617 0.213674
vn 0.483152 -0.873723 -0.056320
vn 0.499144 -0.862923 -0.078861
vn 0.495649 -0.865375 -0.073887
vn 0.504980 -0.858712 -0.087226
vn 0.505837 -0.317512 -0.802069
vn 0.509195 -0.520211 -0.685638
vn 0.510248 -0.392379 -0.765301
vn 0.506701 -0.555439 -0.659350
vn -0.363187 -0.205405 -0.908793
vn -0.312938 -0.315535 -0.895828
vn -0.346677 -0.243260 -0.905892
vn -0.299506 -0.342628 -0.890451
vn -0.688362 -0.604006 -0.401665
vn -0.694983 -0.587308 -0.414811
vn -0.730918 -0.465580 -0.498993
vn -0.743267 -0.395488 -0.539578
vn -0.879301 -0.290382 0.377503
vn -0.908872 -0.215340 0.357183
vn -0.946771 -0.073568 0.313390
vn -0.951903 -0.043631 0.303278
vn -0.355953 -0.282788 0.890690
vn -0.357037 -0.287012 0.888903
vn -0.356301 -0.284141 0.890120
vn -0.357178 -0.287564 0.888668
vn 0.202304 -0.721787 0.661889
vn 0.401610 -0.434105 0.806388
vn 0.240679 -0.677281 0.695244
vn 0.466990 -0.297949 0.832554
vn 0.879047 -0.291289 0.377394
vn 0.907842 -0.218646 0.357795
vn 0.894629 -0.254016 0.367580
vn 0.912482 -0.205176 0.353950
vn 0.955968 -0.242609 -0.165126
vn 0.958868 -0.233252 -0.161759
vn 0.960967 -0.226247 -0.159233
vn 0.961881 -0.223130 -0.158108
vn 0.543272 0.604841 -0.582257
vn 0.540854 0.528140 -0.654633
vn 0.525101 0.397110 -0.752710
vn 0.507576 0.307605 -0.804826
vn -0.372063 0.321898 -0.870604
vn -0.375203 0.314396 -0.871996
vn -0.381893 0.298130 -0.874801
vn -0.389711 0.278614 -0.877781
vn -0.735465 0.344788 -0.583277
vn -0.719039 0.491582 -0.491253
vn -0.731146 0.409174 -0.545895
vn -0.712402 0.522325 -0.468679
vn -0.943503 0.139425 0.300602
vn -0.921310 0.202450 0.331966
vn -0.934675 0.166377 0.314169
vn -0.904031 0.243184 0.351553
vn -0.343423 0.238609 0.908365
vn -0.316411 0.280632 0.906162
vn -0.335395 0.251301 0.907941
vn -0.296544 0.310349 0.903186
vn 0.443172 0.291312 0.847783
vn 0.445199 0.298141 0.844340
vn 0.444033 0.294203 0.846333
vn 0.446226 0.301629 0.842557
vn 0.854437 0.302339 0.422527
vn 0.846497 0.362652 0.389778
vn 0.852391 0.321364 0.412498
vn 0.835969 0.415148 0.358900
vn 0.928884 0.278854 -0.243752
vn 0.923389 0.308957 -0.227811
vn 0.909850 0.365386 -0.196636
vn 0.885110 0.439552 -0.152887
vn 0.425880 0.602175 -0.675286
vn 0.328310 0.683154 -0.652314
vn 0.383579 0.639246 -0.666508
vn 0.218755 0.756709 -0.616067
vn -0.363354 0.625266 -0.690664
vn -0.379132 0.641858 -0.666542
vn -0.375989 0.638574 -0.671457
vn -0.393214 0.656430 -0.643803
vn -0.677405 0.578806 -0.453988
vn -0.661792 0.634610 -0.399127
vn -0.670919 0.604355 -0.429678
vn -0.628032 0.715477 -0.306055
vn -0.650334 0.740885 0.167797
vn -0.593522 0.780991 0.194382
vn -0.606215 0.772599 0.188666
vn -0.420917 0.868542 0.261656
vn -0.080999 0.816268 0.571967
vn -0.185254 0.747867 0.637476
vn -0.126152 0.788765 0.601610
vn -0.258881 0.688714 0.677240
vn 0.311450 0.677558 0.666269
vn 0.329503 0.714368 0.617338
vn 0.324801 0.704798 0.630685
vn 0.358229 0.772513 0.524306
vn 0.694954 0.654233 0.298359
vn 0.639985 0.697891 0.321508
vn 0.616834 0.714414 0.330344
vn 0.516603 0.775292 0.363377
vn 0.722426 0.680095 -0.124786
vn 0.613578 0.764521 -0.197562
vn 0.648488 0.740649 -0.175792
vn 0.561508 0.795506 -0.227770
vn 0.119878 -0.984465 -0.128290
vn 0.119878 -0.984465 -0.128290
vn 0.119878 -0.984465 -0.128290
vn 0.028879 -0.987578 -0.154453
vn 0.028879 -0.987578 -0.154453
vn 0.028879 -0.987578 -0.154453
vn -0.114698 -0.988919 -0.094256
vn -0.114698 -0.988919 -0.094256
vn -0.114698 -0.988919 -0.094256
vn -0.155021 -0.987253 0.036064
vn -0.155021 -0.987253 0.036064
vn -0.155021 -0.987253 0.036064
vn -0.067964 -0.981510 0.178940
vn -0.067964 -0.981510 0.178940
vn -0.067964 -0.981510 0.178940
vn 0.093651 -0.974156 0.205548
vn 0.093651 -0.974156 0.205548
vn 0.093651 -0.974156 0.205548
vn 0.180114 -0.976696 0.116721
vn 0.180114 -0.976696 0.116721
vn 0.180114 -0.976696 0.116721
vn 0.190837 -0.981370 -0.022245
vn 0.190837 -0.981370 -0.022245
vn 0.190837 -0.981370 -0.022245
vn 0.063717 0.981703 -0.179442
vn 0.063717 0.981703 -0.179442
vn 0.063717 0.981703 -0.179442
vn -0.043969 0.982827 -0.179213
vn -0.043969 0.982827 -0.179213
vn -0.043969 0.982827 -0.179213
vn -0.165876 0.982828 -0.080835
vn -0.165876 0.982828 -0.080835
vn -0.165876 0.982828 -0.080835
vn -0.158704 0.974447 0.158953
vn -0.158704 0.974447 0.158953
vn -0.158704 0.974447 0.158953
vn -0.093542 0.965074 0.244708
vn -0.093542 0.965074 0.244708
vn -0.093542 0.965074 0.244708
vn 0.139630 0.968885 0.204364
vn 0.139630 0.968885 0.204364
vn 0.139630 0.968885 0.204364
vn 0.192227 0.971991 0.135212
vn 0.192227 0.971991 0.135212
vn 0.192227 0.971991 0.135212
vn 0.193411 0.977976 -0.078455
vn 0.193410 0.977976 -0.078455
vn 0.193411 0.977976 -0.078455
s 1
usemtl initialShadingGroup
f 1/1/1 2/2/2 9/3/3
f 9/3/3 2/2/2 10/4/4
s 2
f 2/2/5 3/5/6 10/4/7
f 10/4/7 3/5/6 11/6/8
s 3
f 3/5/9 4/7/10 11/6/11
f 11/6/11 4/7/10 12/8/12
s 4
f 4/7/13 5/9/14 12/8/15
f 12/8/15 5/9/14 13/10/16
s 5
f 6/11/17 14/12/18 5/9/19
f 5/9/19 14/12/18 13/10/20
s 6
f 7/13/21 15/14/22 6/11/23
f 6/11/23 15/14/22 14/12/24
s 7
f 7/13/25 8/15/26 15/14/27
f 15/14/27 8/15/26 16/16/28
s 8
f 8/15/29 1/1/30 16/16/31
f 16/16/31 1/1/30 9/3/32
s 9
f 9/3/33 10/4/34 17/17/35
f 17/17/35 10/4/34 18/18/36
s 10
f 10/4/37 11/6/38 18/18/39
f 18/18/39 11/6/38 19/19/40
s 11
f 12/8/41 20/20/42 11/6/43
f 11/6/43 20/20/42 19/19/44
s 12
f 13/10/45 21/21/46 12/8/47
f 12/8/47 21/21/46 20/20/48
s 13
f 13/10/49 14/12/50 21/21/51
f 21/21/51 14/12/50 22/22/52
s 14
f 14/12/53 15/14/54 22/22/55
f 22/22/55 15/14/54 23/23/56
s 15
f 15/14/57 16/16/58 23/23/59
f 23/23/59 16/16/58 24/24/60
s 16
f 9/3/61 17/17/62 16/16/63
f 16/16/63 17/17/62 24/24/64
s 17
f 18/18/65 26/25/66 17/17/67
f 17/17/67 26/25/66 25/26/68
s 18
f 19/19/69 27/27/70 18/18/71
f 18/18/71 27/27/70 26/25/72
s 19
f 19/19/73 20/20/74 27/27/75
f 27/27/75 20/20/74 28/28/76
s 20
f 20/20/77 21/21/78 28/28/79
f 28/28/79 21/21/78 29/29/80
s 21
f 21/21/81 22/22/82 29/29/83
f 29/29/83 22/22/82 30/30/84
s 22
f 22/22/85 23/23/86 30/30/87
f 30/30/87 23/23/86 31/31/88
s 23
f 23/23/89 24/24/90 31/31/91
f 31/31/91 24/24/90 32/32/92
s 24
f 17/17/93 25/26/94 24/24/95
f 24/24/95 25/26/94 32/32/96
s 25
f 25/26/97 26/25/98 33/33/99
f 33/33/99 26/25/98 34/34/100
s 26
f 26/25/101 27/27/102 34/34/103
f 34/34/103 27/27/102 35/35/104
s 27
f 27/27/105 28/28/106 35/35/107
f 35/35/107 28/28/106 36/36/108
s 28
f 28/28/109 29/29/110 36/36/111
f 36/36/111 29/29/110 37/37/112
s 29
f 29/29/113 30/30/114 37/37/115
f 37/37/115 30/30/114 38/38/116
s 30
f 30/30/117 31/31/118 38/38/119
f 38/38/119 31/31/118 39/39/120
s 31
f 32/32/121 40/40/122 31/31/123
f 31/31/123 40/40/122 39/39/124
s 32
f 32/32/125 25/26/126 40/40/127
f 40/40/127 25/26/126 33/33/128
s off
f 2/2/129 1/1/130 41/41/131
f 3/5/132 2/2/133 41/41/134
f 4/7/135 3/5/136 41/41/137
f 5/9/138 4/7/139 41/41/140
f 6/11/141 5/9/142 41/41/143
f 7/13/144 6/11/145 41/41/146
f 8/15/147 7/13/148 41/41/149
f 1/1/150 8/15/151 41/41/152
f 33/33/153 34/34/154 42/42/155
f 34/34/156 35/35/157 42/42/158
f 35/35/159 36/36/160 42/42/161
f 36/36/162 37/37/163 42/42/164
f 37/37/165 38/38/166 42/42/167
f 38/38/168 39/39/169 42/42/170
f 39/39/171 40/40/172 42/42/173
f 40/40/174 33/33/175 42/42/176
