# This file uses centimeters as units for non-parametric coordinates.

mtllib seaweed.mtl
v -0.182894 -0.087591 0.333667
v 0.130402 -0.087591 0.333667
v -0.182894 0.386681 0.467537
v 0.130402 0.499860 0.467537
v -0.180934 0.860952 0.534254
v 0.060253 0.860952 0.467537
v -0.180934 1.250523 0.333667
v 0.060253 1.335223 0.303691
v -0.098768 1.809495 0.387804
v 0.108388 1.919578 0.387804
v -0.066683 2.296229 0.499819
v 0.139387 2.273792 0.499819
v -0.011641 2.768012 0.463265
v 0.166948 2.745576 0.463265
v -0.058101 3.232309 0.526991
v 0.079301 3.232309 0.526991
v -0.058101 3.486771 0.526991
v 0.037258 3.944993 0.526991
v -0.792224 -0.141369 -0.254732
v -0.702207 -0.141369 0.045354
v -0.838431 0.324969 -0.321786
v -0.748414 0.436255 -0.021701
v -0.901772 0.791306 -0.300740
v -0.768569 0.791306 -0.088892
v -0.939729 1.174360 -0.226994
v -0.841718 1.257643 -0.004589
v -0.779469 1.723981 -0.210622
v -0.719949 1.832222 -0.012201
v -0.787321 2.202572 -0.263778
v -0.728113 2.180511 -0.066397
v -0.764550 2.666463 -0.185465
v -0.713237 2.644402 -0.014406
v -0.891306 3.122993 -0.144283
v -0.851827 3.122993 -0.012675
v -0.933723 3.373198 -0.089712
v -0.946761 3.823754 0.053650
v 0.516009 -0.111248 -0.152636
v 0.763249 -0.111248 -0.345060
v 0.598231 0.481539 -0.046992
v 0.845470 0.623000 -0.239416
v 0.640754 1.074325 0.004455
v 0.790112 1.074325 -0.196331
v 0.517556 1.561245 -0.153840
v 0.689479 1.667111 -0.325631
v 0.615647 2.259898 -0.161583
v 0.779127 2.397489 -0.288817
v 0.709767 2.868261 -0.092892
v 0.872388 2.840218 -0.219458
v 0.730752 3.457937 -0.155545
v 0.871687 3.429895 -0.265233
v 0.733228 4.038257 -0.076719
v 0.841660 4.038257 -0.161111
v 0.733228 4.356306 -0.076719
v 0.808481 4.929032 -0.135288
v 0.014986 -0.124934 -0.811932
v -0.172402 -0.124934 -0.560855
v -0.092298 0.396637 -0.892002
v -0.279686 0.521104 -0.640925
v -0.146938 0.918208 -0.930337
v -0.237729 0.918208 -0.697142
v -0.113594 1.346631 -0.978640
v -0.233830 1.439779 -0.767422
v -0.206125 1.961349 -0.945172
v -0.202621 2.082411 -0.610877
v -0.095988 2.496625 -0.818179
v -0.219243 2.471952 -0.653033
v -0.099615 3.015460 -0.752204
v -0.206432 2.990786 -0.609082
v -0.214586 3.526062 -0.827554
v -0.296769 3.526062 -0.717438
v -0.214586 3.805902 -0.827554
v -0.271622 4.309822 -0.751132
v 0.046675 -0.184676 -0.128365
v -0.194996 -0.184676 -0.327737
v 0.131866 0.514483 -0.231630
v -0.109806 0.681330 -0.431002
v 0.172811 1.213642 -0.284342
v -0.055694 1.213642 -0.386362
v 0.045164 1.787937 -0.129612
v -0.159960 1.912800 -0.259974
v 0.016233 2.611959 -0.223660
v -0.143564 2.774240 -0.355488
v 0.062766 3.329489 -0.330486
v -0.096193 3.296414 -0.461622
v -0.002954 4.024980 -0.337314
v -0.140715 3.991904 -0.450963
v 0.073438 4.709434 -0.356906
v -0.032552 4.709434 -0.444345
v 0.073438 5.084555 -0.356906
v -0.000121 5.760054 -0.417590
v -0.184668 -0.053957 -0.211789
v -0.375128 -0.069693 0.191375
v -0.241948 0.582660 -0.138506
v -0.447224 0.720929 0.109670
v -0.357868 1.223556 -0.177673
v -0.451850 1.215791 0.054102
v -0.250601 1.766724 -0.055248
v -0.384660 1.871816 0.154102
v -0.358319 2.519664 -0.023203
v -0.498665 2.659049 0.140896
v -0.529926 3.173051 -0.066153
v -0.652263 3.132172 0.097085
v -0.572046 3.814628 -0.034700
v -0.677677 3.775129 0.106769
v -0.654865 4.444579 -0.110397
v -0.738395 4.437677 -0.001554
v -0.688177 4.790827 -0.110397
v -0.633571 5.409541 -0.034859
v 0.697627 -0.134948 0.136593
v 0.293604 -0.145176 0.463455
v 0.759179 0.530765 0.233508
v 0.413381 0.526636 0.481497
v 0.681104 1.714570 0.436035
v 0.474934 1.192349 0.578412
v 0.307679 -0.132642 -0.877874
v 0.789247 -0.132642 -0.682246
v 0.307679 0.542899 -0.877874
v 0.691823 0.542899 -0.694776
v 0.425059 1.731422 -0.729085
v 0.691823 1.218439 -0.694776
v -0.421057 -0.170736 0.394151
v -0.913254 -0.151857 0.228128
v -0.421057 0.639605 0.486298
v -0.815264 0.657715 0.327036
v -0.546948 2.081298 0.507666
v -0.815264 1.468056 0.419183
v -0.494762 -0.124821 -0.813180
v -0.994813 -0.124821 -0.671310
v -0.494762 0.673801 -0.813180
v -0.910283 0.673801 -0.721340
v -0.678822 2.078870 -0.858330
v -0.910283 1.472423 -0.721340
v -0.493819 -0.132642 -0.061155
v -0.597344 -0.132642 -0.570528
v -0.493819 0.542899 -0.061155
v -0.553872 0.542899 -0.482445
v -0.434836 1.731422 -0.241259
v -0.553872 1.218439 -0.482445
v 0.439090 -0.204763 -0.082577
v 0.150008 -0.204763 0.349407
v 0.439090 0.781751 -0.082577
v 0.182004 0.781751 0.256538
v 0.269615 2.517391 0.002245
v 0.182004 1.768264 0.256538
vt 0.002474 0.086994
vt 0.128601 0.011540
vt 0.102489 0.218787
vt 0.219074 0.110999
vt 0.187044 0.306778
vt 0.356228 0.216237
vt 0.331720 0.396487
vt 0.492827 0.349886
vt 0.480690 0.574532
vt 0.580587 0.501789
vt 0.608189 0.679421
vt 0.703501 0.556465
vt 0.704654 0.776937
vt 0.793040 0.690870
vt 0.823918 0.874160
vt 0.932492 0.813361
vt 0.897195 0.957132
vt 0.999345 0.966616
vt 0.002474 0.086994
vt 0.128600 0.011540
vt 0.102489 0.218787
vt 0.219074 0.110999
vt 0.187044 0.306778
vt 0.356228 0.216237
vt 0.331720 0.396487
vt 0.492827 0.349886
vt 0.480690 0.574532
vt 0.580587 0.501789
vt 0.608189 0.679421
vt 0.703501 0.556465
vt 0.793040 0.690870
vt 0.704654 0.776937
vt 0.932492 0.813361
vt 0.823918 0.874160
vt 0.897195 0.957132
vt 0.999345 0.966616
vt 0.002474 0.086994
vt 0.128600 0.011540
vt 0.102489 0.218787
vt 0.219074 0.110999
vt 0.187044 0.306778
vt 0.356228 0.216237
vt 0.331720 0.396487
vt 0.492827 0.349886
vt 0.480690 0.574532
vt 0.580587 0.501789
vt 0.608189 0.679421
vt 0.703501 0.556465
vt 0.793040 0.690870
vt 0.704654 0.776937
vt 0.932492 0.813361
vt 0.823918 0.874160
vt 0.897195 0.957132
vt 0.999345 0.966616
vt 0.002474 0.086994
vt 0.128600 0.011540
vt 0.102489 0.218787
vt 0.219074 0.110999
vt 0.187044 0.306778
vt 0.356228 0.216237
vt 0.331720 0.396487
vt 0.492827 0.349886
vt 0.480690 0.574532
vt 0.580587 0.501789
vt 0.608189 0.679421
vt 0.703501 0.556465
vt 0.793040 0.690870
vt 0.704654 0.776937
vt 0.932492 0.813361
vt 0.823918 0.874160
vt 0.897195 0.957132
vt 0.999345 0.966616
vt 0.002474 0.086994
vt 0.128600 0.011540
vt 0.102489 0.218787
vt 0.219074 0.110999
vt 0.187044 0.306778
vt 0.356228 0.216237
vt 0.331720 0.396487
vt 0.492827 0.349886
vt 0.480690 0.574532
vt 0.580587 0.501789
vt 0.608189 0.679421
vt 0.703501 0.556465
vt 0.793040 0.690870
vt 0.704654 0.776937
vt 0.932492 0.813361
vt 0.823918 0.874160
vt 0.897195 0.957132
vt 0.999345 0.966616
vt 0.002474 0.086994
vt 0.128600 0.011540
vt 0.102489 0.218787
vt 0.219074 0.110999
vt 0.187044 0.306778
vt 0.356228 0.216237
vt 0.331720 0.396487
vt 0.492827 0.349886
vt 0.480690 0.574532
vt 0.580587 0.501789
vt 0.608189 0.679421
vt 0.703501 0.556465
vt 0.793040 0.690870
vt 0.704654 0.776937
vt 0.932492 0.813361
vt 0.823918 0.874160
vt 0.897195 0.957132
vt 0.999345 0.966616
vt 0.236223 0.524075
vt 0.248774 0.713725
vt 0.070872 0.531606
vt 0.085097 0.687786
vt 0.275938 0.896179
vt 0.076342 0.966843
vt 0.236223 0.524075
vt 0.248774 0.713725
vt 0.070872 0.531606
vt 0.085097 0.687786
vt 0.275938 0.896179
vt 0.076342 0.966843
vt 0.236223 0.524075
vt 0.248774 0.713725
vt 0.070872 0.531606
vt 0.085097 0.687786
vt 0.275938 0.896179
vt 0.076342 0.966843
vt 0.236223 0.524075
vt 0.248774 0.713725
vt 0.070872 0.531606
vt 0.085097 0.687786
vt 0.275938 0.896179
vt 0.076342 0.966843
vt 0.236223 0.524075
vt 0.248774 0.713725
vt 0.070872 0.531606
vt 0.085097 0.687786
vt 0.275938 0.896179
vt 0.076342 0.966843
vt 0.236223 0.524075
vt 0.248774 0.713725
vt 0.070872 0.531606
vt 0.085097 0.687786
vt 0.275938 0.896179
vt 0.076342 0.966843
vn 0.000000 -0.271649 0.962396
vn 0.032813 -0.251368 0.967335
vn 0.056391 -0.201430 0.977878
vn 0.088365 -0.161586 0.982895
vn 0.194121 0.181207 0.964096
vn 0.212598 0.248871 0.944916
vn 0.106201 0.179033 0.978094
vn 0.096820 0.043052 0.994370
vn 0.105353 -0.166785 0.980349
vn 0.087770 -0.208892 0.973992
vn 0.016979 -0.087838 0.995990
vn -0.010294 -0.094551 0.995467
vn -0.001870 -0.013221 0.999911
vn -0.003100 -0.033765 0.999425
vn -0.002693 -0.083166 0.996532
vn 0.000000 -0.086281 0.996271
vn 0.000000 0.000000 1.000000
vn 0.000000 0.000000 1.000000
vn -0.956462 -0.053516 0.286910
vn -0.954794 -0.047936 0.293379
vn -0.947068 -0.080485 0.310780
vn -0.938981 -0.068881 0.337003
vn -0.876497 -0.116121 0.467193
vn -0.851021 -0.076992 0.519456
vn -0.906210 -0.022489 0.422229
vn -0.930957 0.094088 0.352799
vn -0.960540 0.153488 0.231958
vn -0.966193 0.094276 0.239966
vn -0.958143 0.007717 0.286187
vn -0.957495 0.009573 0.288290
vn -0.954369 -0.128085 0.269768
vn -0.952595 -0.140061 0.270086
vn -0.922487 -0.245159 0.298186
vn -0.924761 -0.260513 0.277400
vn -0.895564 -0.166035 0.412792
vn -0.890965 -0.160890 0.424613
vn 0.599105 -0.220284 0.769772
vn 0.623067 -0.205966 0.754563
vn 0.652116 -0.162922 0.740406
vn 0.673317 -0.129603 0.727906
vn 0.754874 0.156534 0.636916
vn 0.760418 0.204376 0.616438
vn 0.680869 0.148864 0.717117
vn 0.691534 0.026823 0.721846
vn 0.686150 -0.133323 0.715139
vn 0.676143 -0.169316 0.717051
vn 0.622967 -0.066195 0.779443
vn 0.603631 -0.079774 0.793263
vn 0.612794 -0.009938 0.790180
vn 0.611058 -0.029074 0.791052
vn 0.611025 -0.067112 0.788762
vn 0.612708 -0.069455 0.787251
vn 0.614192 -0.000000 0.789157
vn 0.614192 -0.000000 0.789157
vn -0.776247 -0.248608 -0.579341
vn -0.797791 -0.231054 -0.556905
vn -0.820984 -0.184042 -0.540475
vn -0.841464 -0.147155 -0.519889
vn -0.907432 -0.010279 -0.420073
vn -0.922622 0.022174 -0.385067
vn -0.889427 -0.065984 -0.452290
vn -0.925598 -0.058334 -0.373987
vn -0.993246 0.085190 -0.078771
vn -0.988161 0.127453 -0.085402
vn -0.892220 0.084355 -0.443653
vn -0.800769 -0.008502 -0.598913
vn -0.792472 -0.077248 -0.604997
vn -0.790454 -0.099595 -0.604371
vn -0.788135 -0.157791 -0.594933
vn -0.789518 -0.171614 -0.589245
vn -0.801407 0.000000 -0.598119
vn -0.801407 0.000000 -0.598119
vn 0.625015 -0.188056 -0.757622
vn 0.606836 -0.177192 -0.774825
vn 0.580895 -0.139194 -0.801989
vn 0.567783 -0.109813 -0.815821
vn 0.452122 0.139633 -0.880959
vn 0.434053 0.176060 -0.883516
vn 0.559102 0.130794 -0.818717
vn 0.550371 0.017107 -0.834745
vn 0.551998 -0.112619 -0.826205
vn 0.551921 -0.144915 -0.821208
vn 0.627491 -0.053384 -0.776792
vn 0.643468 -0.070430 -0.762226
vn 0.637564 -0.007713 -0.770359
vn 0.639265 -0.026111 -0.768543
vn 0.636844 -0.057259 -0.768864
vn 0.635257 -0.059099 -0.770037
vn 0.636369 0.000000 -0.771384
vn 0.636369 0.000000 -0.771384
vn -0.903237 -0.032006 -0.427948
vn -0.877695 -0.061165 -0.475300
vn -0.828158 -0.123989 -0.546609
vn -0.814135 -0.148306 -0.561418
vn -0.902873 0.060599 -0.425615
vn -0.907948 0.102811 -0.406276
vn -0.840024 0.080890 -0.536486
vn -0.839685 -0.014026 -0.542893
vn -0.820071 -0.154161 -0.551106
vn -0.815378 -0.213320 -0.538194
vn -0.788644 -0.135229 -0.599795
vn -0.771869 -0.153619 -0.616943
vn -0.786717 -0.085219 -0.611403
vn -0.782966 -0.105673 -0.613023
vn -0.813723 -0.123569 -0.567966
vn -0.781295 -0.139274 -0.608425
vn -0.983377 0.091500 -0.156833
vn -0.987036 0.102220 -0.123737
vn -0.625465 0.132165 -0.768978
vn -0.588344 0.160398 -0.792542
vn -0.610198 0.143978 -0.779056
vn -0.598455 0.152871 -0.786436
vn -0.674153 0.092381 -0.732792
vn -0.691598 0.077248 -0.718140
vn -0.376104 -0.037068 0.925836
vn -0.416953 -0.009243 0.908881
vn -0.393257 -0.025481 0.919075
vn -0.406112 -0.016707 0.913671
vn -0.317707 -0.075518 0.945177
vn -0.295244 -0.089919 0.951181
vn 0.321312 0.076425 -0.943884
vn 0.364906 0.098634 -0.925805
vn 0.336132 0.083949 -0.938066
vn 0.355336 0.093738 -0.930027
vn 0.258082 0.044620 -0.965092
vn 0.239341 0.035281 -0.970295
vn -0.272805 -0.031361 -0.961558
vn -0.228359 -0.006857 -0.973553
vn -0.257520 -0.022898 -0.966002
vn -0.238473 -0.012405 -0.971070
vn -0.334364 -0.065854 -0.940140
vn -0.352507 -0.076148 -0.932706
vn 0.979292 -0.037068 -0.199032
vn 0.987773 -0.009243 -0.155624
vn 0.983152 -0.025481 -0.181003
vn 0.985764 -0.016707 -0.167305
vn 0.963088 -0.075518 -0.258376
vn 0.955660 -0.089919 -0.280410
vn -0.830811 -0.025392 -0.555976
vn -0.803355 -0.004657 -0.595482
vn -0.823554 -0.019748 -0.566894
vn -0.808497 -0.008418 -0.588440
vn -0.866195 -0.055000 -0.496670
vn -0.873578 -0.061707 -0.482757
s 1
usemtl initialShadingGroup
f 1/1/1 2/2/2 3/3/3
f 3/3/3 2/2/2 4/4/4
f 3/3/3 4/4/4 5/5/5
f 5/5/5 4/4/4 6/6/6
f 5/5/5 6/6/6 7/7/7
f 7/7/7 6/6/6 8/8/8
f 7/7/7 8/8/8 9/9/9
f 9/9/9 8/8/8 10/10/10
f 9/9/9 10/10/10 11/11/11
f 11/11/11 10/10/10 12/12/12
f 12/12/12 14/14/13 11/11/11
f 11/11/11 14/14/13 13/13/14
f 14/14/13 16/16/15 13/13/14
f 13/13/14 16/16/15 15/15/16
f 15/15/16 16/16/15 17/17/17
f 17/17/17 16/16/15 18/18/18
s 2
f 19/19/19 20/20/20 21/21/21
f 21/21/21 20/20/20 22/22/22
f 21/21/21 22/22/22 23/23/23
f 23/23/23 22/22/22 24/24/24
f 23/23/23 24/24/24 25/25/25
f 25/25/25 24/24/24 26/26/26
f 25/25/25 26/26/26 27/27/27
f 27/27/27 26/26/26 28/28/28
f 27/27/27 28/28/28 29/29/29
f 29/29/29 28/28/28 30/30/30
f 30/30/30 32/31/31 29/29/29
f 29/29/29 32/31/31 31/32/32
f 32/31/31 34/33/33 31/32/32
f 31/32/32 34/33/33 33/34/34
f 33/34/34 34/33/33 35/35/35
f 35/35/35 34/33/33 36/36/36
s 3
f 37/37/37 38/38/38 39/39/39
f 39/39/39 38/38/38 40/40/40
f 39/39/39 40/40/40 41/41/41
f 41/41/41 40/40/40 42/42/42
f 41/41/41 42/42/42 43/43/43
f 43/43/43 42/42/42 44/44/44
f 43/43/43 44/44/44 45/45/45
f 45/45/45 44/44/44 46/46/46
f 45/45/45 46/46/46 47/47/47
f 47/47/47 46/46/46 48/48/48
f 48/48/48 50/49/49 47/47/47
f 47/47/47 50/49/49 49/50/50
f 50/49/49 52/51/51 49/50/50
f 49/50/50 52/51/51 51/52/52
f 51/52/52 52/51/51 53/53/53
f 53/53/53 52/51/51 54/54/54
s 4
f 55/55/55 56/56/56 57/57/57
f 57/57/57 56/56/56 58/58/58
f 57/57/57 58/58/58 59/59/59
f 59/59/59 58/58/58 60/60/60
f 59/59/59 60/60/60 61/61/61
f 61/61/61 60/60/60 62/62/62
f 61/61/61 62/62/62 63/63/63
f 63/63/63 62/62/62 64/64/64
f 63/63/63 64/64/64 65/65/65
f 65/65/65 64/64/64 66/66/66
f 66/66/66 68/67/67 65/65/65
f 65/65/65 68/67/67 67/68/68
f 68/67/67 70/69/69 67/68/68
f 67/68/68 70/69/69 69/70/70
f 69/70/70 70/69/69 71/71/71
f 71/71/71 70/69/69 72/72/72
s 5
f 73/73/73 74/74/74 75/75/75
f 75/75/75 74/74/74 76/76/76
f 75/75/75 76/76/76 77/77/77
f 77/77/77 76/76/76 78/78/78
f 77/77/77 78/78/78 79/79/79
f 79/79/79 78/78/78 80/80/80
f 79/79/79 80/80/80 81/81/81
f 81/81/81 80/80/80 82/82/82
f 81/81/81 82/82/82 83/83/83
f 83/83/83 82/82/82 84/84/84
f 84/84/84 86/85/85 83/83/83
f 83/83/83 86/85/85 85/86/86
f 86/85/85 88/87/87 85/86/86
f 85/86/86 88/87/87 87/88/88
f 87/88/88 88/87/87 89/89/89
f 89/89/89 88/87/87 90/90/90
s 6
f 91/91/91 92/92/92 93/93/93
f 93/93/93 92/92/92 94/94/94
f 93/93/93 94/94/94 95/95/95
f 95/95/95 94/94/94 96/96/96
f 95/95/95 96/96/96 97/97/97
f 97/97/97 96/96/96 98/98/98
f 97/97/97 98/98/98 99/99/99
f 99/99/99 98/98/98 100/100/100
f 99/99/99 100/100/100 101/101/101
f 101/101/101 100/100/100 102/102/102
f 102/102/102 104/103/103 101/101/101
f 101/101/101 104/103/103 103/104/104
f 104/103/103 106/105/105 103/104/104
f 103/104/104 106/105/105 105/106/106
f 105/106/106 106/105/105 107/107/107
f 107/107/107 106/105/105 108/108/108
s 7
f 110/109/109 112/110/110 109/111/111
f 109/111/111 112/110/110 111/112/112
f 112/110/110 114/113/113 111/112/112
f 111/112/112 114/113/113 113/114/114
s 8
f 116/115/115 118/116/116 115/117/117
f 115/117/117 118/116/116 117/118/118
f 118/116/116 120/119/119 117/118/118
f 117/118/118 120/119/119 119/120/120
s 9
f 122/121/121 124/122/122 121/123/123
f 121/123/123 124/122/122 123/124/124
f 124/122/122 126/125/125 123/124/124
f 123/124/124 126/125/125 125/126/126
s 10
f 128/127/127 130/128/128 127/129/129
f 127/129/129 130/128/128 129/130/130
f 130/128/128 132/131/131 129/130/130
f 129/130/130 132/131/131 131/132/132
s 11
f 134/133/133 136/134/134 133/135/135
f 133/135/135 136/134/134 135/136/136
f 136/134/134 138/137/137 135/136/136
f 135/136/136 138/137/137 137/138/138
s 12
f 140/139/139 142/140/140 139/141/141
f 139/141/141 142/140/140 141/142/142
f 142/140/140 144/143/143 141/142/142
f 141/142/142 144/143/143 143/144/144
