# This file uses centimeters as units for non-parametric coordinates.

mtllib straws.mtl
v -1.040494 -0.063443 0.903795
v -0.128363 -0.063443 1.029179
v -1.040494 0.857265 0.903795
v -0.128363 0.857265 1.029179
v -0.647121 -0.063443 1.422552
v -0.521737 -0.063443 0.510421
v -0.647121 0.857265 1.422552
v -0.521737 0.857265 0.510421
v -0.398177 -0.075328 -1.272619
v 0.680419 -0.075328 -1.094602
v -0.398177 1.017860 -1.272619
v 0.680419 1.017860 -1.094602
v 0.052113 -0.075328 -0.644312
v 0.230130 -0.075328 -1.722909
v 0.052113 1.017860 -0.644312
v 0.230130 1.017860 -1.722909
v -2.693020 -0.060074 -1.814760
v -2.060066 -0.060074 -1.215236
v -2.693020 0.811740 -1.814760
v -2.060066 0.811740 -1.215236
v -2.676305 -0.060074 -1.198521
v -2.076781 -0.060074 -1.831475
v -2.676305 0.811740 -1.198521
v -2.076781 0.811740 -1.831475
v -3.228757 -0.071245 0.003077
v -2.274105 -0.071245 -0.393972
v -3.228757 0.962684 0.003077
v -2.274105 0.962684 -0.393972
v -2.552906 -0.071245 0.281878
v -2.949956 -0.071245 -0.672774
v -2.552906 0.962684 0.281878
v -2.949956 0.962684 -0.672774
v -1.638511 -0.067503 2.108738
v -0.721178 -0.067503 2.452494
v -1.638511 0.912124 2.108738
v -0.721178 0.912124 2.452494
v -1.351723 -0.067503 2.739283
v -1.007967 -0.067503 1.821949
v -1.351723 0.912124 2.739283
v -1.007967 0.912124 1.821949
v -0.300283 -0.068907 2.644129
v 0.663716 -0.068907 2.910034
v -0.300283 0.931093 2.644129
v 0.663716 0.931093 2.910034
v 0.048764 -0.068907 3.259081
v 0.314669 -0.068907 2.295082
v 0.048764 0.931093 3.259081
v 0.314669 0.931093 2.295082
v 1.650768 -0.074608 1.281318
v 2.644877 -0.074608 0.852291
v 1.650768 1.008128 1.281318
v 2.644877 1.008128 0.852291
v 2.362336 -0.074608 1.563859
v 1.933309 -0.074608 0.569750
v 2.362336 1.008128 1.563859
v 1.933309 1.008128 0.569750
v 1.278273 -0.068907 -1.390642
v 2.063879 -0.068907 -2.009370
v 1.278273 0.931093 -1.390642
v 2.063879 0.931093 -2.009370
v 1.980440 -0.068907 -1.307203
v 1.361712 -0.068907 -2.092809
v 1.980440 0.931093 -1.307203
v 1.361712 0.931093 -2.092809
v -1.364515 -0.072280 -2.084805
v -0.354010 -0.072280 -2.366218
v -1.364515 0.976678 -2.084805
v -0.354010 0.976678 -2.366218
v -0.718556 -0.072280 -1.720259
v -0.999969 -0.072280 -2.730764
v -0.718556 0.976678 -1.720259
v -0.999969 0.976678 -2.730764
v -1.726216 -0.064896 -0.403038
v -0.800129 -0.064896 -0.231790
v -1.726216 0.876891 -0.403038
v -0.800129 0.876891 -0.231790
v -1.348797 -0.064896 0.145629
v -1.177549 -0.064896 -0.780457
v -1.348797 0.876891 0.145629
v -1.177549 0.876891 -0.780457
v -2.500464 -0.070428 1.545606
v -1.515017 -0.070428 1.274413
v -2.500464 0.951653 1.545606
v -1.515017 0.951653 1.274413
v -1.872144 -0.070428 1.902733
v -2.143337 -0.070428 0.917286
v -1.872144 0.951653 1.902733
v -2.143337 0.951653 0.917286
v 1.424719 -0.065099 -0.513689
v 2.155074 -0.065099 0.085572
v 1.424719 0.879641 -0.513689
v 2.155074 0.879641 0.085572
v 1.490265 -0.065099 0.151119
v 2.089527 -0.065099 -0.579236
v 1.490265 0.879641 0.151119
v 2.089527 0.879641 -0.579236
v 0.828975 -0.073243 2.044129
v 1.890932 -0.073243 1.998780
v 0.828975 0.989682 2.044129
v 1.890932 0.989682 1.998780
v 1.382629 -0.073243 2.552433
v 1.337279 -0.073243 1.490476
v 1.382629 0.989682 2.552433
v 1.337279 0.989682 1.490476
v 0.400393 -0.063443 0.630498
v 1.259897 -0.063443 0.960586
v 0.400393 0.857265 0.630498
v 1.259897 0.857265 0.960586
v 0.665101 -0.063443 1.225293
v 0.995189 -0.063443 0.365790
v 0.665101 0.857265 1.225293
v 0.995189 0.857265 0.365790
v -0.460354 -0.063443 0.000000
v 0.460354 -0.063443 0.000000
v -0.460354 0.857265 0.000000
v 0.460354 0.857265 0.000000
v -0.000000 -0.063443 0.460354
v 0.000000 -0.063443 -0.460354
v -0.000000 0.857265 0.460354
v 0.000000 0.857265 -0.460354
vt 0.000000 0.000000
vt 1.000000 0.000000
vt 0.000000 1.000000
vt 1.000000 1.000000
vt 0.000000 0.000000
vt 1.000000 0.000000
vt 0.000000 1.000000
vt 1.000000 1.000000
vt 0.000000 0.000000
vt 1.000000 0.000000
vt 0.000000 1.000000
vt 1.000000 1.000000
vt 0.000000 0.000000
vt 1.000000 0.000000
vt 0.000000 1.000000
vt 1.000000 1.000000
vt 0.000000 0.000000
vt 1.000000 0.000000
vt 0.000000 1.000000
vt 1.000000 1.000000
vt 0.000000 0.000000
vt 1.000000 0.000000
vt 0.000000 1.000000
vt 1.000000 1.000000
vt 0.000000 0.000000
vt 1.000000 0.000000
vt 0.000000 1.000000
vt 1.000000 1.000000
vt 0.000000 0.000000
vt 1.000000 0.000000
vt 0.000000 1.000000
vt 1.000000 1.000000
vt 0.000000 0.000000
vt 1.000000 0.000000
vt 0.000000 1.000000
vt 1.000000 1.000000
vt 0.000000 0.000000
vt 1.000000 0.000000
vt 0.000000 1.000000
vt 1.000000 1.000000
vt 0.000000 0.000000
vt 1.000000 0.000000
vt 0.000000 1.000000
vt 1.000000 1.000000
vt 0.000000 0.000000
vt 1.000000 0.000000
vt 0.000000 1.000000
vt 1.000000 1.000000
vt 0.000000 0.000000
vt 1.000000 0.000000
vt 0.000000 1.000000
vt 1.000000 1.000000
vt 0.000000 0.000000
vt 1.000000 0.000000
vt 0.000000 1.000000
vt 1.000000 1.000000
vt 0.000000 0.000000
vt 1.000000 0.000000
vt 0.000000 1.000000
vt 1.000000 1.000000
vt 0.000000 0.000000
vt 1.000000 0.000000
vt 0.000000 1.000000
vt 1.000000 1.000000
vt 0.000000 0.000000
vt 1.000000 0.000000
vt 0.000000 1.000000
vt 1.000000 1.000000
vt 0.000000 0.000000
vt 1.000000 0.000000
vt 0.000000 1.000000
vt 1.000000 1.000000
vt 0.000000 0.000000
vt 1.000000 0.000000
vt 0.000000 1.000000
vt 1.000000 1.000000
vt 0.000000 0.000000
vt 1.000000 0.000000
vt 0.000000 1.000000
vt 1.000000 1.000000
vt 0.000000 0.000000
vt 1.000000 0.000000
vt 0.000000 1.000000
vt 1.000000 1.000000
vt 0.000000 0.000000
vt 1.000000 0.000000
vt 0.000000 1.000000
vt 1.000000 1.000000
vt 0.000000 0.000000
vt 1.000000 0.000000
vt 0.000000 1.000000
vt 1.000000 1.000000
vt 0.000000 0.000000
vt 1.000000 0.000000
vt 0.000000 1.000000
vt 1.000000 1.000000
vt 0.000000 0.000000
vt 1.000000 0.000000
vt 0.000000 1.000000
vt 1.000000 1.000000
vt 0.000000 0.000000
vt 1.000000 0.000000
vt 0.000000 1.000000
vt 1.000000 1.000000
vt 0.000000 0.000000
vt 1.000000 0.000000
vt 0.000000 1.000000
vt 1.000000 1.000000
vt 0.000000 0.000000
vt 1.000000 0.000000
vt 0.000000 1.000000
vt 1.000000 1.000000
vt 0.000000 0.000000
vt 1.000000 0.000000
vt 0.000000 1.000000
vt 1.000000 1.000000
vt 0.000000 0.000000
vt 1.000000 0.000000
vt 0.000000 1.000000
vt 1.000000 1.000000
vn -0.136182 0.000000 0.990684
vn -0.136182 0.000000 0.990684
vn -0.136182 0.000000 0.990684
vn -0.136182 0.000000 0.990684
vn 0.990684 0.000000 0.136182
vn 0.990684 0.000000 0.136182
vn 0.990684 0.000000 0.136182
vn 0.990684 0.000000 0.136182
vn -0.162842 0.000000 0.986652
vn -0.162842 0.000000 0.986652
vn -0.162842 0.000000 0.986652
vn -0.162842 0.000000 0.986652
vn 0.986652 0.000000 0.162842
vn 0.986652 0.000000 0.162842
vn 0.986652 0.000000 0.162842
vn 0.986652 0.000000 0.162842
vn -0.687674 0.000000 0.726019
vn -0.687674 0.000000 0.726019
vn -0.687674 0.000000 0.726019
vn -0.687674 0.000000 0.726019
vn 0.726020 0.000000 0.687674
vn 0.726020 0.000000 0.687674
vn 0.726020 0.000000 0.687674
vn 0.726020 0.000000 0.687674
vn 0.384020 0.000000 0.923325
vn 0.384020 0.000000 0.923325
vn 0.384020 0.000000 0.923325
vn 0.384020 0.000000 0.923325
vn 0.923325 0.000000 -0.384020
vn 0.923325 0.000000 -0.384020
vn 0.923325 0.000000 -0.384020
vn 0.923325 0.000000 -0.384020
vn -0.350905 0.000000 0.936411
vn -0.350905 0.000000 0.936411
vn -0.350905 0.000000 0.936411
vn -0.350905 0.000000 0.936411
vn 0.936411 0.000000 0.350905
vn 0.936411 0.000000 0.350905
vn 0.936411 0.000000 0.350905
vn 0.936411 0.000000 0.350905
vn -0.265905 0.000000 0.963999
vn -0.265905 0.000000 0.963999
vn -0.265905 0.000000 0.963999
vn -0.265905 0.000000 0.963999
vn 0.963999 0.000000 0.265906
vn 0.963999 0.000000 0.265906
vn 0.963999 0.000000 0.265906
vn 0.963999 0.000000 0.265906
vn 0.396243 0.000000 0.918146
vn 0.396243 0.000000 0.918146
vn 0.396243 0.000000 0.918146
vn 0.396243 0.000000 0.918146
vn 0.918146 0.000000 -0.396243
vn 0.918146 0.000000 -0.396243
vn 0.918146 0.000000 -0.396243
vn 0.918146 0.000000 -0.396243
vn 0.618728 0.000000 0.785605
vn 0.618728 0.000000 0.785605
vn 0.618728 0.000000 0.785605
vn 0.618728 0.000000 0.785605
vn 0.785605 0.000000 -0.618728
vn 0.785605 0.000000 -0.618728
vn 0.785605 0.000000 -0.618728
vn 0.785605 0.000000 -0.618728
vn 0.268279 0.000000 0.963341
vn 0.268279 0.000000 0.963341
vn 0.268279 0.000000 0.963341
vn 0.268278 0.000000 0.963341
vn 0.963341 0.000000 -0.268279
vn 0.963341 0.000000 -0.268279
vn 0.963341 0.000000 -0.268279
vn 0.963341 0.000000 -0.268279
vn -0.181833 0.000000 0.983329
vn -0.181833 0.000000 0.983329
vn -0.181833 0.000000 0.983329
vn -0.181833 0.000000 0.983329
vn 0.983329 0.000000 0.181833
vn 0.983329 0.000000 0.181833
vn 0.983329 0.000000 0.181833
vn 0.983329 0.000000 0.181833
vn 0.265334 0.000000 0.964157
vn 0.265334 0.000000 0.964157
vn 0.265334 0.000000 0.964157
vn 0.265334 0.000000 0.964157
vn 0.964157 0.000000 -0.265334
vn 0.964157 0.000000 -0.265334
vn 0.964157 0.000000 -0.265334
vn 0.964157 0.000000 -0.265334
vn -0.634314 0.000000 0.773075
vn -0.634314 0.000000 0.773075
vn -0.634314 0.000000 0.773075
vn -0.634314 0.000000 0.773075
vn 0.773075 0.000000 0.634314
vn 0.773075 0.000000 0.634314
vn 0.773075 0.000000 0.634314
vn 0.773075 0.000000 0.634314
vn 0.042665 0.000000 0.999089
vn 0.042665 0.000000 0.999089
vn 0.042665 0.000000 0.999089
vn 0.042665 0.000000 0.999090
vn 0.999089 0.000000 -0.042665
vn 0.999090 0.000000 -0.042665
vn 0.999089 0.000000 -0.042665
vn 0.999090 0.000000 -0.042665
vn -0.358515 0.000000 0.933524
vn -0.358515 0.000000 0.933524
vn -0.358515 0.000000 0.933524
vn -0.358515 0.000000 0.933524
vn 0.933524 0.000000 0.358515
vn 0.933524 0.000000 0.358515
vn 0.933524 0.000000 0.358515
vn 0.933524 0.000000 0.358515
vn 0.000000 0.000000 1.000000
vn 0.000000 0.000000 1.000000
vn 0.000000 0.000000 1.000000
vn 0.000000 0.000000 1.000000
vn 1.000000 0.000000 0.000000
vn 1.000000 0.000000 0.000000
vn 1.000000 0.000000 0.000000
vn 1.000000 0.000000 0.000000
s 1
usemtl initialShadingGroup
f 1/1/1 2/2/2 3/3/3
f 3/3/3 2/2/2 4/4/4
s 2
f 5/5/5 6/6/6 7/7/7
f 7/7/7 6/6/6 8/8/8
s 3
f 9/9/9 10/10/10 11/11/11
f 11/11/11 10/10/10 12/12/12
s 4
f 13/13/13 14/14/14 15/15/15
f 15/15/15 14/14/14 16/16/16
s 5
f 17/17/17 18/18/18 19/19/19
f 19/19/19 18/18/18 20/20/20
s 6
f 21/21/21 22/22/22 23/23/23
f 23/23/23 22/22/22 24/24/24
s 7
f 25/25/25 26/26/26 27/27/27
f 27/27/27 26/26/26 28/28/28
s 8
f 29/29/29 30/30/30 31/31/31
f 31/31/31 30/30/30 32/32/32
s 9
f 33/33/33 34/34/34 35/35/35
f 35/35/35 34/34/34 36/36/36
s 10
f 37/37/37 38/38/38 39/39/39
f 39/39/39 38/38/38 40/40/40
s 11
f 41/41/41 42/42/42 43/43/43
f 43/43/43 42/42/42 44/44/44
s 12
f 45/45/45 46/46/46 47/47/47
f 47/47/47 46/46/46 48/48/48
s 13
f 49/49/49 50/50/50 51/51/51
f 51/51/51 50/50/50 52/52/52
s 14
f 53/53/53 54/54/54 55/55/55
f 55/55/55 54/54/54 56/56/56
s 15
f 57/57/57 58/58/58 59/59/59
f 59/59/59 58/58/58 60/60/60
s 16
f 61/61/61 62/62/62 63/63/63
f 63/63/63 62/62/62 64/64/64
s 17
f 65/65/65 66/66/66 67/67/67
f 67/67/67 66/66/66 68/68/68
s 18
f 69/69/69 70/70/70 71/71/71
f 71/71/71 70/70/70 72/72/72
s 19
f 73/73/73 74/74/74 75/75/75
f 75/75/75 74/74/74 76/76/76
s 20
f 77/77/77 78/78/78 79/79/79
f 79/79/79 78/78/78 80/80/80
s 21
f 81/81/81 82/82/82 83/83/83
f 83/83/83 82/82/82 84/84/84
s 22
f 85/85/85 86/86/86 87/87/87
f 87/87/87 86/86/86 88/88/88
s 23
f 89/89/89 90/90/90 91/91/91
f 91/91/91 90/90/90 92/92/92
s 24
f 93/93/93 94/94/94 95/95/95
f 95/95/95 94/94/94 96/96/96
s 25
f 97/97/97 98/98/98 99/99/99
f 99/99/99 98/98/98 100/100/100
s 26
f 101/101/101 102/102/102 103/103/103
f 103/103/103 102/102/102 104/104/104
s 27
f 105/105/105 106/106/106 107/107/107
f 107/107/107 106/106/106 108/108/108
s 28
f 109/109/109 110/110/110 111/111/111
f 111/111/111 110/110/110 112/112/112
s 29
f 113/113/113 114/114/114 115/115/115
f 115/115/115 114/114/114 116/116/116
s 30
f 117/117/117 118/118/118 119/119/119
f 119/119/119 118/118/118 120/120/120
