# This file uses centimeters as units for non-parametric coordinates.

mtllib trunk.mtl
v 1.003993 -0.199003 -0.268433
v 0.701657 -0.199003 -1.056455
v 0.009861 -0.199003 -1.252125
v -0.832768 -0.199003 -1.004061
v -1.197487 -0.199003 -0.352891
v -1.283176 -0.199003 0.333445
v -0.477662 -0.199003 1.316698
v 0.214135 -0.199003 1.512367
v 1.059001 -0.199003 1.307757
v 1.150175 -0.199003 0.311128
v 0.831088 0.572015 -0.626037
v 0.295870 0.695931 -1.146967
v -0.206948 0.784725 -1.118840
v -0.834562 0.600102 -0.701034
v -1.197591 0.523900 0.000000
v -0.995082 0.523900 0.637368
v -0.335084 0.523900 1.204961
v 0.565110 0.523900 1.335605
v 1.119347 0.523900 0.754068
v 1.084355 0.523900 0.000000
v 0.706087 1.199057 -0.664052
v 0.124770 1.296259 -0.919588
v -0.541179 1.789529 -0.977404
v -1.055751 1.587370 -0.478675
v -1.033212 1.241390 0.196796
v -0.719264 1.126141 0.745276
v -0.103747 0.999869 1.168590
v 0.488696 0.986913 0.865798
v 0.921309 1.016114 0.391804
v 0.994647 1.105389 -0.240120
v 0.821374 1.767547 -0.581031
v 0.184891 2.229323 -0.785270
v -0.442409 2.763613 -0.775201
v -0.845960 2.524875 -0.299841
v -0.936185 1.824482 0.278048
v -0.807776 1.937984 0.316769
v -0.246791 1.992094 1.016465
v 0.560301 1.902650 0.971056
v 0.963873 1.684597 0.495728
v 1.080184 1.937337 -0.418753
v 0.030825 -0.567418 -0.005472
v 0.050424 1.870410 0.084899
vt 0.918561 0.685761
vt 0.824041 0.617089
vt 0.707209 0.617089
vt 0.612689 0.685761
vt 0.576586 0.796875
vt 0.612689 0.907989
vt 0.707209 0.976661
vt 0.824041 0.976661
vt 0.918561 0.907989
vt 0.954664 0.796875
vt 0.991019 0.017057
vt 0.811009 0.009452
vt 0.657123 0.009452
vt 0.503238 0.009452
vt 0.349352 0.009452
vt 0.102731 0.023357
vt 0.357416 0.009452
vt 0.511301 0.009452
vt 0.665187 0.009452
vt 0.819072 0.009452
vt 0.991019 0.017057
vt 0.972958 0.208212
vt 0.811009 0.208212
vt 0.657123 0.208212
vt 0.503238 0.208212
vt 0.349352 0.208212
vt 0.203530 0.208212
vt 0.357416 0.208212
vt 0.511301 0.208212
vt 0.665187 0.208212
vt 0.819072 0.208212
vt 0.972958 0.208212
vt 0.972958 0.406972
vt 0.811009 0.406972
vt 0.657123 0.406972
vt 0.503238 0.406972
vt 0.349352 0.406972
vt 0.203530 0.406972
vt 0.357416 0.406972
vt 0.511301 0.406972
vt 0.665187 0.406972
vt 0.819072 0.406972
vt 0.972958 0.406972
vt 0.972958 0.605732
vt 0.811009 0.605732
vt 0.657123 0.605732
vt 0.503238 0.605732
vt 0.349352 0.605732
vt 0.222430 0.615548
vt 0.357416 0.605732
vt 0.511301 0.605732
vt 0.665187 0.605732
vt 0.819072 0.605732
vt 0.972958 0.605732
vt 0.300603 0.946423
vt 0.191268 0.985686
vt 0.168169 0.818402
vt 0.083510 0.983751
vt 0.014187 0.892366
vt -0.001311 0.781270
vt 0.020747 0.773826
vt 0.117113 0.639314
vt 0.255756 0.648043
vt 0.325081 0.739422
vt 0.765625 0.789314
vt 0.345061 0.915226
vn 0.932771 0.043197 -0.357871
vn 0.852629 0.138178 -0.503915
vn 0.794995 0.146032 -0.588777
vn 0.642818 0.259089 -0.720873
vn 0.272073 0.026078 -0.961923
vn 0.201232 0.050635 -0.978234
vn 0.076027 0.149262 -0.985871
vn 0.071252 0.219227 -0.973069
vn -0.281763 0.067578 -0.957101
vn -0.399295 0.148459 -0.904723
vn -0.486368 0.052943 -0.872148
vn -0.603354 0.108529 -0.790054
vn -0.858164 0.180342 -0.480657
vn -0.867607 0.194698 -0.457549
vn -0.926120 0.120676 -0.357407
vn -0.867529 0.265903 -0.420344
vn -0.990495 0.060225 -0.123662
vn -0.988240 0.142537 0.055368
vn -0.969652 0.157441 0.187047
vn -0.909034 0.215416 0.356726
vn -0.772882 0.041814 0.633171
vn -0.713176 0.135797 0.687706
vn -0.716695 0.112562 0.688243
vn -0.606085 0.236471 0.759435
vn -0.266755 0.198388 0.943124
vn -0.188135 0.259831 0.947150
vn -0.176088 0.221707 0.959083
vn -0.013167 0.396301 0.918026
vn 0.233606 0.122441 0.964591
vn 0.463127 0.284069 0.839535
vn 0.511402 0.399736 0.760710
vn 0.608329 0.537677 0.583814
vn 0.995753 -0.013352 0.091094
vn 0.999179 0.021612 0.034271
vn 0.995852 0.088578 0.020785
vn 0.982979 0.183635 0.005439
vn 0.969492 -0.016972 -0.244534
vn 0.953047 0.006474 -0.302752
vn 0.939298 0.008446 -0.342999
vn 0.910074 0.041945 -0.412318
vn 0.523409 0.165988 -0.835758
vn 0.405716 0.223473 -0.886259
vn 0.186536 0.202058 -0.961445
vn 0.179257 0.166189 -0.969664
vn -0.699953 0.111810 -0.705382
vn -0.715446 0.125499 -0.687304
vn -0.993315 0.031024 -0.111189
vn -0.999873 -0.003987 0.015417
vn -0.878843 0.148314 0.453474
vn -0.821840 0.215100 0.527552
vn -0.644837 0.160053 0.747375
vn -0.539508 0.148534 0.828775
vn 0.274671 0.291907 0.916158
vn 0.315063 0.295384 0.901933
vn 0.694336 0.302778 0.652858
vn 0.715697 0.209844 0.666141
vn 0.992418 0.099258 0.072482
vn 0.993330 0.000159 0.115304
vn 0.856738 -0.055403 -0.512767
vn 0.807570 -0.060067 -0.586704
vn 0.383876 0.092582 -0.918732
vn 0.374221 0.108465 -0.920975
vn 0.159238 0.162523 -0.973771
vn 0.143794 0.187138 -0.971752
vn -0.766280 0.233822 -0.598450
vn -0.794186 0.199667 -0.573935
vn -0.978492 0.181694 0.097674
vn -0.975366 0.200872 0.091171
vn -0.735894 0.203487 0.645796
vn -0.538172 0.346789 0.768185
vn -0.692088 0.156971 0.704539
vn -0.767635 0.231700 0.597538
vn 0.202527 0.001405 0.979276
vn 0.042812 -0.117390 0.992163
vn 0.727692 -0.139383 0.671593
vn 0.724124 -0.134376 0.676452
vn 0.991397 -0.079452 0.104021
vn 0.991391 -0.079319 0.104171
vn 0.739606 -0.157343 -0.654390
vn 0.522365 0.018566 -0.852520
vn 0.185781 -0.958256 -0.217327
vn 0.326712 -0.939094 -0.106591
vn -0.011089 -0.999927 0.004860
vn -0.010353 -0.958996 -0.283231
vn -0.163590 -0.963074 -0.213837
vn -0.263521 -0.960715 -0.087086
vn -0.243929 -0.964355 0.102561
vn -0.150336 -0.965792 0.211295
vn 0.007546 -0.971965 0.235007
vn 0.150850 -0.976209 0.155760
vn 0.312562 -0.949897 0.000281
vn 0.153715 0.987789 0.025377
vn 0.543591 0.743000 0.390461
vn 0.228065 0.936213 0.267378
vn 0.423533 0.738660 0.524406
vn 0.215681 0.697269 0.683592
vn 0.109401 0.683801 0.721420
vn -0.011385 0.947894 -0.318382
vn 0.078770 0.991414 -0.104369
vn 0.190358 0.970969 -0.144853
vn 0.162065 0.983169 0.084338
vn -0.030373 0.997057 0.070392
s 1
usemtl initialShadingGroup
f 1/11/1 2/12/2 11/22/3
f 11/22/3 2/12/2 12/23/4
s 2
f 2/12/5 3/13/6 12/23/7
f 12/23/7 3/13/6 13/24/8
s 3
f 3/13/9 4/14/10 13/24/11
f 13/24/11 4/14/10 14/25/12
s 4
f 4/14/13 5/15/14 14/25/15
f 14/25/15 5/15/14 15/26/16
s 5
f 5/15/17 6/16/18 15/26/19
f 15/26/19 6/16/18 16/27/20
s 6
f 6/16/21 7/17/22 16/27/23
f 16/27/23 7/17/22 17/28/24
s 7
f 7/17/25 8/18/26 17/28/27
f 17/28/27 8/18/26 18/29/28
s 8
f 8/18/29 9/19/30 18/29/31
f 18/29/31 9/19/30 19/30/32
s 9
f 9/19/33 10/20/34 19/30/35
f 19/30/35 10/20/34 20/31/36
s 10
f 10/20/37 1/21/38 20/31/39
f 20/31/39 1/21/38 11/32/40
s 1
f 11/22/3 12/23/4 21/33/41
f 21/33/41 12/23/4 22/34/42
s 2
f 12/23/7 13/24/8 22/34/43
f 22/34/43 13/24/8 23/35/44
s 3
f 13/24/11 14/25/12 23/35/45
f 23/35/45 14/25/12 24/36/46
s 4
f 15/26/16 25/37/47 14/25/15
f 14/25/15 25/37/47 24/36/48
s 5
f 15/26/19 16/27/20 25/37/49
f 25/37/49 16/27/20 26/38/50
s 6
f 16/27/23 17/28/24 26/38/51
f 26/38/51 17/28/24 27/39/52
s 7
f 17/28/27 18/29/28 27/39/53
f 27/39/53 18/29/28 28/40/54
s 8
f 18/29/31 19/30/32 28/40/55
f 28/40/55 19/30/32 29/41/56
s 9
f 19/30/35 20/31/36 29/41/57
f 29/41/57 20/31/36 30/42/58
s 10
f 20/31/39 11/32/40 30/42/59
f 30/42/59 11/32/40 21/43/60
s 1
f 21/33/41 22/34/42 31/44/61
f 31/44/61 22/34/42 32/45/62
s 2
f 22/34/43 23/35/44 32/45/63
f 32/45/63 23/35/44 33/46/64
s 3
f 24/36/46 34/47/65 23/35/45
f 23/35/45 34/47/65 33/46/66
s 4
f 25/37/47 35/48/67 24/36/48
f 24/36/48 35/48/67 34/47/68
s 5
f 25/37/49 26/38/50 35/48/69
f 35/48/69 26/38/50 36/49/70
s 6
f 27/39/52 37/50/71 26/38/51
f 26/38/51 37/50/71 36/49/72
s 7
f 27/39/53 28/40/54 37/50/73
f 37/50/73 28/40/54 38/51/74
s 8
f 29/41/56 39/52/75 28/40/55
f 28/40/55 39/52/75 38/51/76
s 9
f 30/42/58 40/53/77 29/41/57
f 29/41/57 40/53/77 39/52/78
s 10
f 30/42/59 21/43/60 40/53/79
f 40/53/79 21/43/60 31/54/80
s 11
f 2/2/81 1/1/82 41/65/83
f 3/3/84 2/2/81 41/65/83
f 4/4/85 3/3/84 41/65/83
f 5/5/86 4/4/85 41/65/83
f 6/6/87 5/5/86 41/65/83
f 7/7/88 6/6/87 41/65/83
f 8/8/89 7/7/88 41/65/83
f 9/9/90 8/8/89 41/65/83
f 10/10/91 9/9/90 41/65/83
f 1/1/82 10/10/91 41/65/83
s 12
f 31/55/92 32/56/93 42/57/94
f 32/56/93 33/58/95 42/57/94
f 33/58/95 34/59/96 42/57/94
f 34/59/96 35/60/97 42/57/94
f 35/60/97 36/61/98 42/57/94
f 36/61/98 37/62/99 42/57/94
f 37/62/99 38/63/100 42/57/94
f 38/63/100 39/64/101 42/57/94
f 39/64/101 40/66/102 42/57/94
f 40/66/102 31/55/92 42/57/94
