# This file uses centimeters as units for non-parametric coordinates.

mtllib cylinder.mtl
v 0.353553 -0.500000 -0.353553
v 0.000000 -0.500000 -0.500000
v -0.353553 -0.500000 -0.353553
v -0.500000 -0.500000 0.000000
v -0.353553 -0.500000 0.353553
v 0.000000 -0.500000 0.500000
v 0.353553 -0.500000 0.353553
v 0.500000 -0.500000 0.000000
v 0.353553 0.500000 -0.353553
v 0.000000 0.500000 -0.500000
v -0.353553 0.500000 -0.353553
v -0.500000 0.500000 0.000000
v -0.353553 0.500000 0.353553
v 0.000000 0.500000 0.500000
v 0.353553 0.500000 0.353553
v 0.500000 0.500000 0.000000
v 0.000000 -0.500000 0.000000
v 0.000000 0.500000 0.000000
vt 0.610485 0.045765
vt 0.500000 0.000000
vt 0.389515 0.045765
vt 0.343750 0.156250
vt 0.389515 0.266735
vt 0.500000 0.312500
vt 0.610485 0.266735
vt 0.656250 0.156250
vt 0.375000 0.312500
vt 0.406250 0.312500
vt 0.437500 0.312500
vt 0.468750 0.312500
vt 0.500000 0.312500
vt 0.531250 0.312500
vt 0.562500 0.312500
vt 0.593750 0.312500
vt 0.625000 0.312500
vt 0.375000 0.688440
vt 0.406250 0.688440
vt 0.437500 0.688440
vt 0.468750 0.688440
vt 0.500000 0.688440
vt 0.531250 0.688440
vt 0.562500 0.688440
vt 0.593750 0.688440
vt 0.625000 0.688440
vt 0.610485 0.733265
vt 0.500000 0.687500
vt 0.389515 0.733265
vt 0.343750 0.843750
vt 0.389515 0.954235
vt 0.500000 1.000000
vt 0.610485 0.954235
vt 0.656250 0.843750
vt 0.500000 0.150000
vt 0.500000 0.837500
vn 0.382683 0.000000 -0.923880
vn 0.382683 0.000000 -0.923880
vn 0.382683 0.000000 -0.923880
vn 0.382683 0.000000 -0.923880
vn -0.382683 0.000000 -0.923880
vn -0.382683 0.000000 -0.923880
vn -0.382683 0.000000 -0.923880
vn -0.382683 0.000000 -0.923880
vn -0.923880 0.000000 -0.382683
vn -0.923880 0.000000 -0.382683
vn -0.923880 0.000000 -0.382683
vn -0.923880 0.000000 -0.382683
vn -0.923880 0.000000 0.382683
vn -0.923880 0.000000 0.382683
vn -0.923880 0.000000 0.382683
vn -0.923880 0.000000 0.382683
vn -0.382683 0.000000 0.923880
vn -0.382683 0.000000 0.923880
vn -0.382684 0.000000 0.923880
vn -0.382684 0.000000 0.923880
vn 0.382683 0.000000 0.923880
vn 0.382683 0.000000 0.923880
vn 0.382683 0.000000 0.923880
vn 0.382683 0.000000 0.923880
vn 0.923880 0.000000 0.382683
vn 0.923880 0.000000 0.382683
vn 0.923880 0.000000 0.382683
vn 0.923880 0.000000 0.382683
vn 0.923880 0.000000 -0.382684
vn 0.923880 0.000000 -0.382684
vn 0.923880 0.000000 -0.382684
vn 0.923880 0.000000 -0.382684
vn 0.000000 -1.000000 0.000000
vn 0.000000 -1.000000 0.000000
vn 0.000000 -1.000000 0.000000
vn 0.000000 -1.000000 0.000000
vn 0.000000 -1.000000 0.000000
vn 0.000000 -1.000000 0.000000
vn 0.000000 -1.000000 0.000000
vn 0.000000 -1.000000 0.000000
vn 0.000000 -1.000000 0.000000
vn 0.000000 1.000000 0.000000
vn 0.000000 1.000000 0.000000
vn 0.000000 1.000000 0.000000
vn 0.000000 1.000000 0.000000
vn 0.000000 1.000000 0.000000
vn 0.000000 1.000000 0.000000
vn 0.000000 1.000000 0.000000
vn 0.000000 1.000000 0.000000
vn 0.000000 1.000000 0.000000
s 1
usemtl initialShadingGroup
f 1/9/1 2/10/2 9/18/3
f 9/18/3 2/10/2 10/19/4
s 2
f 2/10/5 3/11/6 10/19/7
f 10/19/7 3/11/6 11/20/8
s 3
f 3/11/9 4/12/10 11/20/11
f 11/20/11 4/12/10 12/21/12
s 4
f 4/12/13 5/13/14 12/21/15
f 12/21/15 5/13/14 13/22/16
s 5
f 5/13/17 6/14/18 13/22/19
f 13/22/19 6/14/18 14/23/20
s 6
f 6/14/21 7/15/22 14/23/23
f 14/23/23 7/15/22 15/24/24
s 7
f 7/15/25 8/16/26 15/24/27
f 15/24/27 8/16/26 16/25/28
s 8
f 8/16/29 1/17/30 16/25/31
f 16/25/31 1/17/30 9/26/32
s 9
f 2/2/33 1/1/34 17/35/35
f 3/3/36 2/2/33 17/35/35
f 4/4/37 3/3/36 17/35/35
f 5/5/38 4/4/37 17/35/35
f 6/6/39 5/5/38 17/35/35
f 7/7/40 6/6/39 17/35/35
f 8/8/41 7/7/40 17/35/35
f 1/1/34 8/8/41 17/35/35
s 10
f 9/33/42 10/32/43 18/36/44
f 10/32/43 11/31/45 18/36/44
f 11/31/45 12/30/46 18/36/44
f 12/30/46 13/29/47 18/36/44
f 13/29/47 14/28/48 18/36/44
f 14/28/48 15/27/49 18/36/44
f 15/27/49 16/34/50 18/36/44
f 16/34/50 9/33/42 18/36/44
v 0.353553 -0.500000 -0.353553
v 0.000000 -0.500000 -0.500000
v -0.353553 -0.500000 -0.353553
v -0.500000 -0.500000 0.000000
v -0.353553 -0.500000 0.353553
v 0.000000 -0.500000 0.500000
v 0.353553 -0.500000 0.353553
v 0.500000 -0.500000 0.000000
v 0.353553 0.500000 -0.353553
v 0.000000 0.500000 -0.500000
v -0.353553 0.500000 -0.353553
v -0.500000 0.500000 0.000000
v -0.353553 0.500000 0.353553
v 0.000000 0.500000 0.500000
v 0.353553 0.500000 0.353553
v 0.500000 0.500000 0.000000
v 0.000000 -0.500000 0.000000
v 0.000000 0.500000 0.000000
vt 0.610485 0.045765
vt 0.500000 0.000000
vt 0.389515 0.045765
vt 0.343750 0.156250
vt 0.389515 0.266735
vt 0.500000 0.312500
vt 0.610485 0.266735
vt 0.656250 0.156250
vt 0.375000 0.312500
vt 0.406250 0.312500
vt 0.437500 0.312500
vt 0.468750 0.312500
vt 0.500000 0.312500
vt 0.531250 0.312500
vt 0.562500 0.312500
vt 0.593750 0.312500
vt 0.625000 0.312500
vt 0.375000 0.688440
vt 0.406250 0.688440
vt 0.437500 0.688440
vt 0.468750 0.688440
vt 0.500000 0.688440
vt 0.531250 0.688440
vt 0.562500 0.688440
vt 0.593750 0.688440
vt 0.625000 0.688440
vt 0.610485 0.733265
vt 0.500000 0.687500
vt 0.389515 0.733265
vt 0.343750 0.843750
vt 0.389515 0.954235
vt 0.500000 1.000000
vt 0.610485 0.954235
vt 0.656250 0.843750
vt 0.500000 0.150000
vt 0.500000 0.837500
vn 0.382683 0.000000 -0.923880
vn 0.382683 0.000000 -0.923880
vn 0.382683 0.000000 -0.923880
vn 0.382683 0.000000 -0.923880
vn -0.382683 0.000000 -0.923880
vn -0.382683 0.000000 -0.923880
vn -0.382683 0.000000 -0.923880
vn -0.382683 0.000000 -0.923880
vn -0.923880 0.000000 -0.382683
vn -0.923880 0.000000 -0.382683
vn -0.923880 0.000000 -0.382683
vn -0.923880 0.000000 -0.382683
vn -0.923880 0.000000 0.382683
vn -0.923880 0.000000 0.382683
vn -0.923880 0.000000 0.382683
vn -0.923880 0.000000 0.382683
vn -0.382683 0.000000 0.923880
vn -0.382683 0.000000 0.923880
vn -0.382684 0.000000 0.923880
vn -0.382684 0.000000 0.923880
vn 0.382683 0.000000 0.923880
vn 0.382683 0.000000 0.923880
vn 0.382683 0.000000 0.923880
vn 0.382683 0.000000 0.923880
vn 0.923880 0.000000 0.382683
vn 0.923880 0.000000 0.382683
vn 0.923880 0.000000 0.382683
vn 0.923880 0.000000 0.382683
vn 0.923880 0.000000 -0.382684
vn 0.923880 0.000000 -0.382684
vn 0.923880 0.000000 -0.382684
vn 0.923880 0.000000 -0.382684
vn 0.000000 -1.000000 0.000000
vn 0.000000 -1.000000 0.000000
vn 0.000000 -1.000000 0.000000
vn 0.000000 -1.000000 0.000000
vn 0.000000 -1.000000 0.000000
vn 0.000000 -1.000000 0.000000
vn 0.000000 -1.000000 0.000000
vn 0.000000 -1.000000 0.000000
vn 0.000000 -1.000000 0.000000
vn 0.000000 1.000000 0.000000
vn 0.000000 1.000000 0.000000
vn 0.000000 1.000000 0.000000
vn 0.000000 1.000000 0.000000
vn 0.000000 1.000000 0.000000
vn 0.000000 1.000000 0.000000
vn 0.000000 1.000000 0.000000
vn 0.000000 1.000000 0.000000
vn 0.000000 1.000000 0.000000
s 1
f 19/45/51 20/46/52 27/54/53
f 27/54/53 20/46/52 28/55/54
s 2
f 20/46/55 21/47/56 28/55/57
f 28/55/57 21/47/56 29/56/58
s 3
f 21/47/59 22/48/60 29/56/61
f 29/56/61 22/48/60 30/57/62
s 4
f 22/48/63 23/49/64 30/57/65
f 30/57/65 23/49/64 31/58/66
s 5
f 23/49/67 24/50/68 31/58/69
f 31/58/69 24/50/68 32/59/70
s 6
f 24/50/71 25/51/72 32/59/73
f 32/59/73 25/51/72 33/60/74
s 7
f 25/51/75 26/52/76 33/60/77
f 33/60/77 26/52/76 34/61/78
s 8
f 26/52/79 19/53/80 34/61/81
f 34/61/81 19/53/80 27/62/82
s 9
f 20/38/83 19/37/84 35/71/85
f 21/39/86 20/38/83 35/71/85
f 22/40/87 21/39/86 35/71/85
f 23/41/88 22/40/87 35/71/85
f 24/42/89 23/41/88 35/71/85
f 25/43/90 24/42/89 35/71/85
f 26/44/91 25/43/90 35/71/85
f 19/37/84 26/44/91 35/71/85
s 10
f 27/69/92 28/68/93 36/72/94
f 28/68/93 29/67/95 36/72/94
f 29/67/95 30/66/96 36/72/94
f 30/66/96 31/65/97 36/72/94
f 31/65/97 32/64/98 36/72/94
f 32/64/98 33/63/99 36/72/94
f 33/63/99 34/70/100 36/72/94
f 34/70/100 27/69/92 36/72/94
v 0.353553 -0.500000 -0.353553
v 0.000000 -0.500000 -0.500000
v -0.353553 -0.500000 -0.353553
v -0.500000 -0.500000 0.000000
v -0.353553 -0.500000 0.353553
v 0.000000 -0.500000 0.500000
v 0.353553 -0.500000 0.353553
v 0.500000 -0.500000 0.000000
v 0.353553 0.500000 -0.353553
v 0.000000 0.500000 -0.500000
v -0.353553 0.500000 -0.353553
v -0.500000 0.500000 0.000000
v -0.353553 0.500000 0.353553
v 0.000000 0.500000 0.500000
v 0.353553 0.500000 0.353553
v 0.500000 0.500000 0.000000
v 0.000000 -0.500000 0.000000
v 0.000000 0.500000 0.000000
vt 0.610485 0.045765
vt 0.500000 0.000000
vt 0.389515 0.045765
vt 0.343750 0.156250
vt 0.389515 0.266735
vt 0.500000 0.312500
vt 0.610485 0.266735
vt 0.656250 0.156250
vt 0.375000 0.312500
vt 0.406250 0.312500
vt 0.437500 0.312500
vt 0.468750 0.312500
vt 0.500000 0.312500
vt 0.531250 0.312500
vt 0.562500 0.312500
vt 0.593750 0.312500
vt 0.625000 0.312500
vt 0.375000 0.688440
vt 0.406250 0.688440
vt 0.437500 0.688440
vt 0.468750 0.688440
vt 0.500000 0.688440
vt 0.531250 0.688440
vt 0.562500 0.688440
vt 0.593750 0.688440
vt 0.625000 0.688440
vt 0.610485 0.733265
vt 0.500000 0.687500
vt 0.389515 0.733265
vt 0.343750 0.843750
vt 0.389515 0.954235
vt 0.500000 1.000000
vt 0.610485 0.954235
vt 0.656250 0.843750
vt 0.500000 0.150000
vt 0.500000 0.837500
vn 0.382683 0.000000 -0.923880
vn 0.382683 0.000000 -0.923880
vn 0.382683 0.000000 -0.923880
vn 0.382683 0.000000 -0.923880
vn -0.382683 0.000000 -0.923880
vn -0.382683 0.000000 -0.923880
vn -0.382683 0.000000 -0.923880
vn -0.382683 0.000000 -0.923880
vn -0.923880 0.000000 -0.382683
vn -0.923880 0.000000 -0.382683
vn -0.923880 0.000000 -0.382683
vn -0.923880 0.000000 -0.382683
vn -0.923880 0.000000 0.382683
vn -0.923880 0.000000 0.382683
vn -0.923880 0.000000 0.382683
vn -0.923880 0.000000 0.382683
vn -0.382683 0.000000 0.923880
vn -0.382683 0.000000 0.923880
vn -0.382684 0.000000 0.923880
vn -0.382684 0.000000 0.923880
vn 0.382683 0.000000 0.923880
vn 0.382683 0.000000 0.923880
vn 0.382683 0.000000 0.923880
vn 0.382683 0.000000 0.923880
vn 0.923880 0.000000 0.382683
vn 0.923880 0.000000 0.382683
vn 0.923880 0.000000 0.382683
vn 0.923880 0.000000 0.382683
vn 0.923880 0.000000 -0.382684
vn 0.923880 0.000000 -0.382684
vn 0.923880 0.000000 -0.382684
vn 0.923880 0.000000 -0.382684
vn 0.000000 -1.000000 0.000000
vn 0.000000 -1.000000 0.000000
vn 0.000000 -1.000000 0.000000
vn 0.000000 -1.000000 0.000000
vn 0.000000 -1.000000 0.000000
vn 0.000000 -1.000000 0.000000
vn 0.000000 -1.000000 0.000000
vn 0.000000 -1.000000 0.000000
vn 0.000000 -1.000000 0.000000
vn 0.000000 1.000000 0.000000
vn 0.000000 1.000000 0.000000
vn 0.000000 1.000000 0.000000
vn 0.000000 1.000000 0.000000
vn 0.000000 1.000000 0.000000
vn 0.000000 1.000000 0.000000
vn 0.000000 1.000000 0.000000
vn 0.000000 1.000000 0.000000
vn 0.000000 1.000000 0.000000
s 1
f 37/81/101 38/82/102 45/90/103
f 45/90/103 38/82/102 46/91/104
s 2
f 38/82/105 39/83/106 46/91/107
f 46/91/107 39/83/106 47/92/108
s 3
f 39/83/109 40/84/110 47/92/111
f 47/92/111 40/84/110 48/93/112
s 4
f 40/84/113 41/85/114 48/93/115
f 48/93/115 41/85/114 49/94/116
s 5
f 41/85/117 42/86/118 49/94/119
f 49/94/119 42/86/118 50/95/120
s 6
f 42/86/121 43/87/122 50/95/123
f 50/95/123 43/87/122 51/96/124
s 7
f 43/87/125 44/88/126 51/96/127
f 51/96/127 44/88/126 52/97/128
s 8
f 44/88/129 37/89/130 52/97/131
f 52/97/131 37/89/130 45/98/132
s 9
f 38/74/133 37/73/134 53/107/135
f 39/75/136 38/74/133 53/107/135
f 40/76/137 39/75/136 53/107/135
f 41/77/138 40/76/137 53/107/135
f 42/78/139 41/77/138 53/107/135
f 43/79/140 42/78/139 53/107/135
f 44/80/141 43/79/140 53/107/135
f 37/73/134 44/80/141 53/107/135
s 10
f 45/105/142 46/104/143 54/108/144
f 46/104/143 47/103/145 54/108/144
f 47/103/145 48/102/146 54/108/144
f 48/102/146 49/101/147 54/108/144
f 49/101/147 50/100/148 54/108/144
f 50/100/148 51/99/149 54/108/144
f 51/99/149 52/106/150 54/108/144
f 52/106/150 45/105/142 54/108/144
